<svg width="160" height="167" viewBox="0 0 160 167" fill="none" xmlns="http://www.w3.org/2000/svg">
<g clip-path="url(#clip0)">
<path d="M21.3604 102.724L6.29133 100.553C2.27432 99.9835 -0.488695 96.2732 0.0851629 92.3099L1.82799 80.42C2.40185 76.4356 6.14255 73.695 10.1383 74.2642L22.1255 76.4567C26.0575 77.1735 28.4592 81.1789 27.2052 84.9525L21.3604 102.724Z" fill="#F0C9B6"/>
<path d="M104.464 216.984C97.2375 218.102 89.9049 218.544 82.551 218.397C78.2152 218.312 73.9006 218.017 69.586 217.554C68.4383 217.427 67.2906 217.301 66.1429 217.153C64.9102 216.984 63.6774 216.816 62.4447 216.626L62.4022 216.12L61.127 194.975L62.5935 153.087L62.6572 151.232L65.1014 123.847L67.0781 101.711L73.8581 89.168L91.3714 99.6876L94.0281 109.954L96.5574 119.694L102.742 143.642C102.742 143.642 104.358 149.313 106.122 157.556C107.843 165.504 109.671 175.855 110.351 185.868C111.265 198.728 110.224 211.039 104.464 216.984Z" fill="white"/>
<g opacity="0.2">
<path opacity="0.2" d="M72.6463 118.259C73.1351 120.747 74.7929 139.826 71.0735 145.644C70.5209 146.509 70.1596 148.638 69.947 151.631C69.1394 162.973 70.3084 186.943 70.2021 203.976C70.1596 209.415 69.9895 214.159 69.5857 217.553C68.438 217.426 67.2903 217.3 66.1426 217.152C66.2276 216.456 66.3126 215.74 66.3976 215.023C66.5677 213.547 66.7164 212.029 66.844 210.512C67.099 207.687 67.2903 204.799 67.4391 201.889C67.5028 200.751 67.5453 199.612 67.5878 198.495C67.6304 197.483 67.6729 196.471 67.6941 195.481C67.7154 194.722 67.7366 193.984 67.7579 193.246C67.8004 191.37 67.8429 189.493 67.8641 187.68C67.8641 187.217 67.8641 186.753 67.8854 186.31C67.8854 186.036 67.8854 185.762 67.8854 185.509C67.8854 185.172 67.8854 184.813 67.8854 184.476C67.8854 183.717 67.8854 182.979 67.8854 182.241C67.8854 181.862 67.8854 181.504 67.8854 181.124C67.8854 180.597 67.8854 180.091 67.8854 179.564C67.8854 178.721 67.8641 177.899 67.8641 177.098C67.8641 176.824 67.8641 176.528 67.8429 176.254C67.8429 175.875 67.8216 175.516 67.8216 175.158C67.8004 174.526 67.8004 173.893 67.7791 173.282C67.7791 172.987 67.7579 172.67 67.7579 172.375C67.7366 171.469 67.7154 170.583 67.6941 169.74C67.6941 169.361 67.6729 168.981 67.6516 168.623C67.5878 166.578 67.5241 164.723 67.4603 163.1C67.4391 162.868 67.4391 162.615 67.4178 162.404C67.3753 161.476 67.3328 160.612 67.3115 159.853C67.2903 159.389 67.269 158.968 67.2478 158.567C67.2265 158.314 67.2265 158.061 67.2053 157.85C67.2053 157.724 67.184 157.597 67.184 157.492C67.1203 156.248 67.0778 155.574 67.0778 155.574C67.3753 154.372 67.6729 153.17 67.9279 151.926C70.6484 139.404 71.5411 125.722 71.7749 115.793C72.9226 116.046 74.4954 116.721 76.0257 117.184C74.8142 116.805 72.285 116.383 72.6463 118.259Z" fill="black"/>
</g>
<path d="M109.14 70.257C109.161 70.2359 109.182 70.2148 109.203 70.2148C109.097 70.3203 108.97 70.4046 108.863 70.51C108.948 70.4257 109.055 70.3413 109.14 70.257Z" fill="#F6F9FD"/>
<path d="M79.447 117.563C79.447 117.563 83.1452 146.971 85.5044 154.413C87.8636 161.854 80.5522 204.839 80.5522 204.839C80.5522 204.839 76.5352 209.456 75.345 209.456C74.176 209.456 69.7552 204.038 69.7552 202.816C69.7552 201.593 63.5703 154.413 63.5703 154.413L68.1612 113.536L77.853 111.639L79.447 117.563Z" fill="#BE0308"/>
<path d="M62.6773 108.416C59.5105 103.44 56.3224 98.4862 53.1555 93.511C50.9026 98.7181 48.5434 104.979 46.1417 112.547C44.5689 117.502 42.9749 123.025 41.4021 129.16C40.977 130.846 38.554 131.057 37.8952 129.37C34.6008 120.622 32.0716 110.734 31.9016 100.953C31.7953 95.1343 26.0992 91.0023 20.4882 92.731C16.3011 94.0169 12.3054 95.8932 8.90474 98.5494C7.50197 99.6667 6.20548 100.974 5.14278 102.428C-5.65424 117.459 13.1343 149.166 25.9929 159.074C41.1045 172.376 57.4913 150.114 64.5264 139.511C65.0578 132.87 66.0567 121.233 66.5881 114.677C65.2703 112.569 63.9951 110.481 62.6773 108.416Z" fill="#00A3AC"/>
<path d="M31.9446 101.754C21.9553 102.555 10.4144 106.771 3.03924 121.76C0.701298 113.222 1.44519 103.967 8.92659 98.4649C12.3485 95.8297 16.3442 93.9745 20.5313 92.6886C26.1423 90.9599 31.7959 95.1129 31.9234 100.931C31.9234 101.205 31.9234 101.48 31.9446 101.754Z" fill="#008188"/>
<path opacity="0.2" d="M34.7494 119.757C30.9237 104.178 18.4901 94.8808 8.92578 98.4646C12.3477 95.8294 16.3434 93.9743 20.5305 92.6883C26.1203 90.9807 31.8163 95.0705 31.9226 100.868C32.0501 107.34 33.1978 113.938 34.7494 119.757Z" fill="black"/>
<path opacity="0.2" d="M55.0468 96.4627C54.4092 95.4719 53.7929 94.4811 53.1552 93.4902C48.7557 103.567 44.5474 116.848 41.4018 129.118C41.1892 129.898 40.6154 130.34 39.914 130.467C41.168 130.467 34.6005 156.819 21.8906 155.427C23.2509 156.776 24.6111 157.999 25.9714 159.032C33.3465 165.083 39.8077 164.028 46.6303 159.264C47.5654 151.738 48.6919 141.387 48.6706 135.632C49.1595 124.016 52.8577 112.632 56.981 99.4563C56.3221 98.4865 55.6845 97.4746 55.0468 96.4627Z" fill="black"/>
<path d="M159.532 111.155C159.511 111.07 159.511 110.965 159.511 110.859C159.511 110.796 159.511 110.733 159.49 110.67C159.469 110.543 159.469 110.417 159.447 110.29C158.831 103.734 157.768 98.9696 156.621 97.6204C153.517 93.9522 140.17 89.3143 130.776 86.384C130.733 86.5105 130.712 86.637 130.669 86.7635C130.457 86.7213 130.244 86.6792 130.032 86.637C129.883 86.5738 129.734 86.4894 129.585 86.4262C125.483 84.5921 121.063 83.3483 116.706 82.2099C115.707 81.9569 114.899 82.6315 114.708 83.538C114.453 83.3272 114.283 83.1797 114.283 83.1797C113.199 86.7002 112.242 90.3052 111.435 93.9312C111.286 94.6058 111.137 95.3014 110.988 95.9971C110.712 97.2831 110.457 98.5901 110.223 99.8972C109.819 102.132 109.458 104.366 109.16 106.601L94.4526 108.33L93.815 110.058L83.4643 138.539C83.1243 139.256 82.8054 139.952 82.4866 140.626C80.425 145.222 79.1073 149.228 78.3634 151.736C77.8745 153.444 77.6407 154.477 77.6195 154.54C77.6195 154.54 76.663 181.798 79.9149 205.388C80.5525 209.963 81.3389 214.411 82.3379 218.501C89.6705 218.648 97.0031 218.206 104.251 217.088C108.544 216.435 112.795 215.528 116.982 214.369C120.149 213.505 123.273 212.472 126.376 211.291C127.418 210.891 128.459 210.49 129.5 210.047C130.096 198.326 132.859 182.431 134.304 175.959C134.984 175.959 135.685 175.917 136.387 175.853C136.939 175.79 137.96 175.495 139.15 175.052C140.021 174.905 140.701 174.799 140.935 174.757C140.935 174.757 140.956 174.61 140.978 174.335C140.999 174.335 141.02 174.314 141.041 174.314V174.335V174.314C142.954 173.534 144.846 172.607 145.547 172.059C146.376 171.384 147.162 170.646 147.906 169.845C152.136 165.228 155.026 158.377 156.939 150.724C156.939 150.703 156.939 150.703 156.939 150.703C160.17 137.633 160.467 122.096 159.532 111.155Z" fill="#00A3AC"/>
<path d="M109.096 96.6304C109.351 97.5369 109.861 98.612 110.477 99.7715C110.711 98.4644 110.966 97.1785 111.243 95.8714C110.818 95.7449 110.435 95.6606 110.116 95.5763C109.479 95.4287 108.905 95.9979 109.096 96.6304Z" fill="#00A3AC"/>
<path d="M111.519 79.6596C111.519 79.6596 104.569 85.5413 96.9811 96.7144C95.3871 99.0755 93.7505 101.669 92.1565 104.493C91.8589 105.02 91.5614 105.569 91.2638 106.117C90.7325 103.439 89.0534 101.099 87.1618 99.2231C84.08 96.1452 80.4668 94.3322 80.4668 94.3322C80.5306 94.2901 81.657 93.2782 83.6761 91.7181C84.4413 91.1279 85.334 90.4533 86.3329 89.7365C86.4179 89.6732 86.5029 89.61 86.5879 89.5468C91.2851 86.1737 98.4052 81.6623 106.737 78.2893C106.737 78.2893 105.079 77.6569 104.696 76.0547C106.354 78.0153 109.755 78.9007 111.519 79.6596Z" fill="white"/>
<g opacity="0.1">
<path opacity="0.1" d="M91.2423 101.858C92.0287 103.229 96.8321 96.9042 96.9597 96.7144C95.3656 99.0755 93.7291 101.669 92.135 104.493C91.8375 105.02 91.5399 105.569 91.2423 106.117C90.711 103.439 89.0319 101.099 87.1403 99.2231C84.0585 96.1452 80.4453 94.3322 80.4453 94.3322C80.5091 94.2901 81.6355 93.2782 83.6547 91.7181C84.4198 91.1279 85.3125 90.4533 86.3114 89.7365C86.3964 89.6732 86.4814 89.61 86.5665 89.5468C91.2636 86.1737 98.3837 81.6623 106.715 78.2893C106.715 78.2893 105.057 77.6569 104.675 76.0547C106.375 78.0153 109.755 78.9007 111.519 79.6596C103.591 77.7201 92.1775 88.8722 87.1403 91.6338C82.1244 94.4165 90.4347 100.488 91.2423 101.858Z" fill="black"/>
</g>
<path d="M121.424 83.413C120.744 84.6779 120.213 85.8585 119.766 86.9758C117.556 92.5202 117.917 96.3148 118.321 98.0857C118.406 98.4862 117.981 98.7814 117.641 98.5706C117.556 98.5073 117.471 98.4651 117.365 98.423C115.048 97.0949 112.838 96.3148 111.244 95.8721C110.818 95.7456 110.436 95.6613 110.117 95.577C109.479 95.4294 108.927 95.9986 109.097 96.6311C109.352 97.5376 109.862 98.6127 110.478 99.7722C111.499 101.627 112.816 103.63 113.922 105.211C114.092 105.443 114.24 105.654 114.389 105.886C114.41 105.907 114.41 105.928 114.432 105.949C114.665 106.286 114.878 106.581 115.091 106.834C115.516 107.404 115.303 108.184 114.708 108.5C114.644 108.542 114.58 108.563 114.517 108.584C112.54 109.196 110.648 109.954 108.863 110.819C106.1 112.168 103.571 113.77 101.233 115.583C92.9651 121.992 87.3328 130.825 83.6771 138.435C79.5113 147.121 77.896 154.246 77.8535 154.457C78.4274 140.86 81.3604 128.949 85.3137 118.872C85.3137 118.872 85.3137 118.872 85.3137 118.851C87.1203 114.213 89.1394 109.976 91.2435 106.139C100.638 88.8731 111.52 79.6816 111.52 79.6816C118.194 80.9676 121.424 83.413 121.424 83.413Z" fill="#008188"/>
<path d="M77.8537 83.8555C77.8112 83.9398 76.1959 86.6382 74.6656 90.201C74.4531 90.6858 74.2406 91.1918 74.0493 91.6977C73.2416 93.7005 72.5402 95.8929 72.1152 98.0011C72.0727 98.2119 72.0302 98.4227 72.0089 98.6335C71.9876 98.6967 71.9876 98.7811 71.9664 98.8443C71.9451 98.9076 71.9451 98.9919 71.9451 99.0551C71.9239 99.1816 71.9026 99.3081 71.9026 99.4346C71.8814 99.5822 71.8601 99.7508 71.8601 99.8984C71.8601 99.9616 71.8389 100.025 71.8389 100.109C71.8389 100.215 71.8176 100.299 71.8176 100.404C71.8176 100.489 71.8176 100.573 71.7964 100.657C71.7964 100.742 71.7964 100.826 71.7964 100.931C71.7964 100.974 71.7964 101.016 71.7964 101.058C71.7964 101.142 71.7964 101.248 71.7964 101.332C71.7964 101.416 71.7964 101.479 71.7964 101.564C71.7964 101.564 72.0089 106.286 71.9026 113.475C71.8814 114.192 71.8814 114.95 71.8601 115.73C71.5838 126.63 70.5424 142.061 67.1417 155.511C67.4605 151.843 67.5881 148.343 67.5881 145.055C67.5881 144.949 67.5881 144.844 67.5881 144.738C67.5881 144.591 67.5881 144.464 67.5881 144.317C67.5881 144.106 67.5881 143.895 67.5881 143.684C67.5881 143.474 67.5881 143.263 67.5668 143.073C67.5456 142.419 67.5243 141.766 67.5031 141.134C67.5031 140.986 67.4818 140.817 67.4818 140.67C67.4818 140.459 67.4605 140.248 67.4605 140.058C67.4605 139.911 67.4393 139.763 67.4393 139.616C67.3968 138.836 67.333 138.056 67.2693 137.297C67.2693 137.149 67.248 137.023 67.2268 136.875C67.2055 136.559 67.163 136.243 67.1417 135.905C67.1205 135.568 67.078 135.252 67.0355 134.915C67.0142 134.725 66.993 134.556 66.9717 134.366C66.9292 134.008 66.8867 133.65 66.8442 133.291C66.8229 133.123 66.8017 132.954 66.7804 132.806C66.7592 132.617 66.7379 132.406 66.6954 132.216C66.6529 131.879 66.6104 131.542 66.5466 131.204C66.5254 131.036 66.5041 130.867 66.4616 130.698C66.4191 130.361 66.3553 130.045 66.3128 129.729C66.3128 129.686 66.2916 129.644 66.2916 129.623C66.2491 129.328 66.2066 129.054 66.1428 128.78C66.1428 128.759 66.1428 128.738 66.1215 128.717C66.0578 128.379 66.0153 128.063 65.9515 127.747C65.9303 127.578 65.8878 127.431 65.8665 127.262C65.8452 127.093 65.8027 126.946 65.7815 126.777C65.5902 125.765 65.3777 124.774 65.1439 123.847C65.1014 123.636 65.0588 123.446 64.9951 123.257C64.9738 123.172 64.9526 123.067 64.9313 122.982C64.9101 122.898 64.8888 122.814 64.8676 122.729C64.8251 122.582 64.8038 122.455 64.7613 122.308C64.74 122.202 64.6975 122.076 64.6763 121.971C64.655 121.907 64.655 121.844 64.6338 121.781C64.6125 121.654 64.57 121.549 64.5488 121.422C64.5275 121.38 64.5275 121.338 64.5062 121.275C64.4637 121.127 64.4212 121.001 64.4 120.853C64.3787 120.811 64.3787 120.769 64.3575 120.706C64.3362 120.6 64.2937 120.516 64.2724 120.411C64.0387 119.588 63.8049 118.808 63.5711 118.049C63.5286 117.944 63.5073 117.839 63.4648 117.733C63.4223 117.628 63.401 117.522 63.3585 117.396C63.3373 117.312 63.2948 117.227 63.2735 117.143C63.2523 117.08 63.231 117.016 63.2097 116.953C62.6784 115.33 62.1258 113.875 61.5944 112.568C61.5519 112.442 61.4882 112.315 61.4457 112.189C61.3607 111.999 61.2969 111.809 61.2119 111.62C61.1694 111.493 61.1056 111.367 61.0631 111.261C61.0206 111.177 60.9781 111.072 60.9356 110.987C60.8931 110.903 60.8506 110.819 60.8293 110.734C60.5105 110.017 60.1917 109.364 59.9154 108.753C59.8729 108.647 59.8091 108.542 59.7666 108.457C59.7454 108.394 59.7028 108.331 59.6816 108.289C59.6603 108.226 59.6178 108.183 59.5966 108.12C59.4265 107.783 59.2565 107.467 59.1077 107.171C59.0865 107.129 59.0652 107.066 59.0227 107.024C58.8952 106.771 58.7677 106.539 58.6401 106.328C58.6189 106.286 58.5764 106.244 58.5551 106.181C58.4701 106.033 58.3851 105.907 58.3213 105.78C58.2788 105.717 58.2363 105.633 58.1938 105.569C58.1938 105.569 58.1938 105.548 58.1726 105.548C58.1513 105.506 58.13 105.464 58.1088 105.443C58.0663 105.358 58.0238 105.295 57.96 105.211C57.7262 104.831 58.0025 104.347 58.4489 104.347C58.5126 104.347 58.5764 104.347 58.6401 104.347C58.7252 104.347 58.8314 104.347 58.9164 104.347C59.044 104.347 59.1502 104.347 59.2565 104.347C59.3415 104.347 59.4478 104.347 59.5328 104.325C59.6178 104.325 59.7241 104.304 59.8091 104.304C59.8941 104.304 60.0004 104.283 60.0854 104.283C60.2767 104.262 60.4467 104.241 60.638 104.22C60.723 104.22 60.808 104.199 60.8931 104.178C60.9781 104.157 61.0631 104.157 61.1481 104.136C61.3181 104.115 61.4669 104.094 61.6157 104.051C61.7857 104.03 61.9345 103.988 62.1045 103.946C62.1683 103.925 62.2533 103.904 62.3171 103.904C62.3383 103.904 62.3596 103.904 62.3808 103.883C62.5084 103.862 62.6359 103.82 62.7422 103.798C62.9547 103.735 63.1672 103.672 63.3798 103.609C63.4223 103.588 63.4648 103.588 63.5073 103.567C63.7198 103.503 63.9324 103.419 64.1024 103.335C64.1662 103.314 64.2512 103.271 64.315 103.25C64.3787 103.229 64.4425 103.208 64.485 103.166C64.5275 103.145 64.57 103.124 64.6338 103.103C64.7825 103.04 64.9313 102.955 65.0376 102.892C65.0801 102.871 65.1226 102.85 65.1864 102.829C65.2076 102.829 65.2289 102.808 65.2289 102.808C65.6114 102.597 65.5689 102.007 65.1439 101.859C65.0801 101.838 65.0163 101.817 64.9313 101.796C64.8676 101.775 64.7825 101.754 64.7188 101.732C64.57 101.69 64.4212 101.648 64.2937 101.627C64.2299 101.606 64.1449 101.585 64.0812 101.585C64.0174 101.564 63.9324 101.564 63.8686 101.543C63.8474 101.543 63.8261 101.543 63.8049 101.522C63.7624 101.522 63.6986 101.501 63.6561 101.501C63.5923 101.501 63.5073 101.479 63.4435 101.479C63.3798 101.479 63.2948 101.458 63.231 101.458C63.1672 101.458 63.0822 101.437 63.0185 101.437C62.9547 101.437 62.8909 101.437 62.8272 101.416C62.7422 101.416 62.6359 101.395 62.5509 101.395C62.4871 101.395 62.4234 101.395 62.3596 101.395C62.2958 101.395 62.2533 101.395 62.1896 101.395C62.1258 101.395 62.062 101.395 61.9983 101.395C61.9558 101.395 61.9133 101.395 61.8707 101.395C61.7857 101.395 61.6795 101.395 61.5944 101.395C61.5519 101.395 61.5094 101.395 61.4457 101.395C61.4032 101.395 61.3607 101.395 61.2969 101.395C61.2544 101.395 61.2119 101.395 61.1694 101.395C61.0843 101.395 60.9781 101.395 60.8931 101.416C60.8293 101.416 60.7443 101.416 60.6805 101.437H60.6593C60.4255 101.458 60.3405 101.142 60.5317 101.037C60.5743 101.016 60.638 100.974 60.6805 100.952C60.7655 100.91 60.8506 100.847 60.9356 100.805C61.0418 100.742 61.1481 100.678 61.2544 100.594C61.2969 100.573 61.3394 100.531 61.3819 100.51C61.4669 100.446 61.5732 100.383 61.6582 100.299C61.7007 100.278 61.7432 100.236 61.7857 100.194C61.8282 100.151 61.8707 100.13 61.9133 100.088C62.1683 99.8773 62.4234 99.6243 62.6784 99.3714C62.7422 99.3081 62.8059 99.2449 62.8697 99.1605C63.1672 98.8443 63.4435 98.507 63.6986 98.1697C63.7624 98.0854 63.8261 98.0221 63.8686 97.9378C63.9749 97.7903 64.0812 97.6638 64.1662 97.5162C64.2087 97.474 64.2299 97.4108 64.2724 97.3686L64.4425 97.1156C64.5488 96.947 64.655 96.7994 64.74 96.6308C64.7613 96.5886 64.8038 96.5464 64.8251 96.4832C64.9101 96.3356 64.9951 96.1881 65.0801 96.0194C65.1014 95.9773 65.1439 95.914 65.1651 95.8718C65.3139 95.6189 65.4414 95.3448 65.5689 95.0918C65.5902 95.0497 65.6114 94.9864 65.6327 94.9443C65.654 94.9021 65.6752 94.8599 65.6965 94.8178C65.7177 94.7756 65.739 94.7124 65.7602 94.6702C65.7815 94.607 65.824 94.5437 65.8452 94.4805C65.8665 94.4383 65.8878 94.3751 65.909 94.3329C66.4191 93.2367 66.8229 92.1404 67.1417 91.1707C67.163 91.0864 67.1842 91.002 67.2268 90.9177C67.2905 90.7491 67.333 90.5804 67.3755 90.4118C67.3968 90.3696 67.3968 90.3274 67.418 90.2853C67.4606 90.1799 67.4818 90.0534 67.5031 89.948C67.5243 89.8426 67.5668 89.7372 67.5881 89.6318C67.6093 89.5896 67.6093 89.5474 67.6093 89.5053C67.6943 89.2101 67.7581 88.9361 67.8219 88.6831C67.8219 88.662 67.8431 88.6199 67.8431 88.5988C67.8431 88.5566 67.8644 88.5144 67.8644 88.4934C67.8644 88.4723 67.8856 88.4301 67.8856 88.409C67.9069 88.3036 67.9281 88.2193 67.9494 88.135C67.9706 88.0928 67.9706 88.0507 67.9706 88.0085C67.9706 87.9874 67.9919 87.9453 67.9919 87.9242C67.9919 87.882 68.0132 87.8398 68.0132 87.8188C68.0132 87.7977 68.0132 87.7766 68.0344 87.7555C68.0344 87.7134 68.0557 87.6923 68.0557 87.6501C68.0557 87.629 68.0557 87.629 68.0557 87.608C68.0557 87.5869 68.0557 87.5869 68.0557 87.5658C68.0769 87.4604 68.0982 87.3761 68.0982 87.3339C68.0982 87.3339 68.0982 87.3339 68.0982 87.3128C68.0982 87.2917 68.0982 87.2917 68.0982 87.2917C68.417 87.1652 68.757 87.0598 69.0759 86.9333C69.0759 86.9333 69.0971 86.9333 69.1184 86.9123C70.1598 86.5328 71.1375 86.1955 72.0727 85.8582C75.3883 84.6987 77.7687 83.8766 77.8537 83.8555Z" fill="#008188"/>
<path d="M80.4454 94.3118C79.4252 94.5437 78.5113 94.9021 77.6824 95.3448C75.8758 96.3145 74.473 97.6848 73.5166 98.8865C72.3689 100.299 71.795 101.479 71.7738 101.564C71.7525 100.425 71.88 99.2238 72.1138 98.0011C72.1776 97.727 72.2201 97.4319 72.2839 97.1578C72.8365 94.7756 73.7291 92.3302 74.6643 90.201C76.2159 86.6171 77.8099 83.9187 77.8524 83.8555C77.8524 83.8555 78.15 84.4879 78.5325 85.4366C78.9364 86.4274 79.4465 87.7766 79.8503 89.1891C80.0628 89.948 80.2541 90.7069 80.3816 91.4448C80.5517 92.5199 80.6154 93.5318 80.4454 94.3118Z" fill="white"/>
<path d="M87.1418 99.2231C87.1418 99.2231 86.2491 102.343 85.0589 105.99C83.5711 110.523 81.6583 115.877 80.468 117.058C78.704 118.787 74.3044 116.278 71.8177 115.751C71.8177 115.308 71.8389 114.887 71.8389 114.465C71.9877 106.728 71.7539 101.584 71.7539 101.584C71.7964 101.5 72.3703 100.319 73.4967 98.9069C74.4744 97.7052 75.8559 96.3349 77.6625 95.3652C78.4914 94.9225 79.4266 94.5641 80.4255 94.3322C80.4468 94.3111 84.06 96.1452 87.1418 99.2231Z" fill="#BE0308"/>
<g opacity="0.15">
<path opacity="0.15" d="M91.2438 106.116C89.3522 101.036 83.4436 97.4938 80.2768 97.03C77.0887 96.5663 71.7539 101.563 71.7539 101.563C71.7964 101.478 72.3703 100.298 73.4967 98.8852C74.4744 97.6836 75.8559 96.3133 77.6625 95.3435C78.4914 94.9008 79.4266 94.5424 80.4255 94.3105C80.4255 94.3105 84.0387 96.1446 87.1205 99.2014C89.0334 101.099 90.7125 103.439 91.2438 106.116Z" fill="black"/>
</g>
<g opacity="0.1">
<path opacity="0.1" d="M80.4454 94.3118C79.4252 94.5437 78.5113 94.9021 77.6824 95.3448C75.8758 96.3145 74.473 97.6848 73.5166 98.8865C72.3689 100.299 71.795 101.479 71.7738 101.564C71.7525 100.425 71.88 99.2238 72.1138 98.0011C72.1776 97.727 72.2201 97.4319 72.2839 97.1578C72.8365 94.7756 73.7291 92.3302 74.6643 90.201C76.2158 86.6171 77.8099 83.9187 77.8524 83.8555C77.8524 83.8555 78.15 84.4879 78.5325 85.4366C78.5325 85.4366 72.6452 95.8929 74.4943 95.5345C76.3221 95.1762 78.3625 93.8902 80.4454 94.3118Z" fill="black"/>
</g>
<g opacity="0.2">
<path opacity="0.2" d="M85.0577 105.99C83.5699 110.523 81.657 115.877 80.4668 117.058C79.6379 117.859 78.2564 117.754 76.7473 117.353C76.7473 117.353 76.7473 117.353 76.7261 117.353C76.5135 117.29 76.301 117.227 76.0672 117.163C74.5369 116.7 72.9641 116.025 71.8164 115.772C71.8164 115.329 71.8377 114.908 71.8377 114.486C71.8377 114.486 73.0066 114.064 74.6007 114.254C75.3021 114.338 76.0885 114.528 76.8749 114.95C79.4254 116.257 83.081 111.05 85.0577 105.99Z" fill="black"/>
</g>
<g opacity="0.2">
<path opacity="0.2" d="M113.922 105.189C112.137 102.638 109.756 98.9911 109.098 96.609C108.928 95.9976 109.48 95.4284 110.118 95.5549C111.648 95.8922 114.454 96.7144 117.387 98.4009C117.195 98.3376 110.5 95.8711 110.33 97.1992C110.16 98.4009 112.477 103.018 113.922 105.189Z" fill="black"/>
</g>
<g opacity="0.2">
<path opacity="0.2" d="M87.672 160.612H81.9122C81.8059 160.612 81.7422 160.528 81.7422 160.443V159.495C81.7422 159.389 81.8272 159.326 81.9122 159.326H87.672C87.7783 159.326 87.8421 159.41 87.8421 159.495V160.443C87.8421 160.528 87.757 160.612 87.672 160.612Z" fill="black"/>
</g>
<path d="M87.0998 159.958H81.34C81.2337 159.958 81.1699 159.874 81.1699 159.789V158.841C81.1699 158.735 81.2549 158.672 81.34 158.672H87.0998C87.2061 158.672 87.2698 158.756 87.2698 158.841V159.789C87.2698 159.874 87.1848 159.958 87.0998 159.958Z" fill="#008188"/>
<g opacity="0.2">
<path opacity="0.2" d="M94.7285 131.478C94.7285 131.478 107.566 129.137 117.98 131.478V135.778C117.98 135.778 101.785 132.827 94.7285 135.778V131.478Z" fill="black"/>
</g>
<path d="M93.9844 130.487C93.9844 130.487 106.822 128.147 117.236 130.487V134.788C117.236 134.788 101.041 131.836 93.9844 134.788V130.487Z" fill="#00A3AC"/>
<g opacity="0.2">
<path opacity="0.2" d="M95.1113 137.192C95.1113 137.192 107.949 134.852 118.363 137.192V157.409C118.363 157.409 102.168 154.458 95.1113 157.409V137.192Z" fill="black"/>
</g>
<path d="M94.3672 136.2C94.3672 136.2 107.205 133.86 117.619 136.2V156.417C117.619 156.417 101.424 153.466 94.3672 156.417V136.2Z" fill="#00A3AC"/>
<g opacity="0.2">
<path opacity="0.2" d="M77.8537 83.8555C77.8112 83.9398 76.1959 86.6382 74.6656 90.201C74.4531 90.6858 74.2405 91.1918 74.0493 91.6977C73.2416 93.7005 72.5402 95.8929 72.1151 98.0011C72.0726 98.2119 72.0301 98.4227 72.0089 98.6335C71.9876 98.6967 71.9876 98.7811 71.9664 98.8443C71.9451 98.9075 71.9451 98.9919 71.9451 99.0551C71.9239 99.1816 71.9026 99.3081 71.9026 99.4346C71.8814 99.5821 71.8601 99.7508 71.8601 99.8984C71.8601 99.9616 71.8388 100.025 71.8388 100.109C71.8388 100.215 71.8176 100.299 71.8176 100.404C71.8176 100.489 71.8176 100.573 71.7963 100.657C71.7963 100.742 71.7963 100.826 71.7963 100.931C71.7963 100.974 71.7963 101.016 71.7963 101.058C71.35 100.194 71.7751 94.101 74.0068 89.3788C76.1534 84.8674 69.7985 86.7225 69.2246 86.8912C70.2661 86.5117 71.2437 86.1744 72.1789 85.8371C75.3883 84.6987 77.7687 83.8766 77.8537 83.8555Z" fill="black"/>
</g>
<g opacity="0.2">
<path opacity="0.2" d="M119.765 86.9754C117.555 92.5198 117.916 96.3144 118.32 98.0853C116.917 93.869 118.256 88.5776 117.704 85.4997C117.406 83.8975 116.577 82.9067 114.558 83.0332C113.665 83.0753 112.56 83.3494 111.179 83.8553C100.573 87.7132 85.6526 118.134 85.3125 118.829C87.1191 114.191 89.1382 109.954 91.2424 106.117C100.637 88.8516 111.519 79.6602 111.519 79.6602C118.192 80.9672 121.423 83.4126 121.423 83.4126C120.743 84.6775 120.212 85.8581 119.765 86.9754Z" fill="black"/>
</g>
<g opacity="0.2">
<path opacity="0.2" d="M114.495 108.563C109.458 110.144 105.058 112.589 101.232 115.562C108.076 108.879 115.876 107.994 112.922 105.211C110.032 102.47 109.118 96.8206 109.075 96.6309C109.734 98.992 112.114 102.66 113.9 105.211C114.07 105.443 114.219 105.675 114.367 105.886C114.389 105.907 114.389 105.928 114.41 105.949C114.644 106.286 114.856 106.581 115.069 106.834C115.536 107.446 115.239 108.331 114.495 108.563Z" fill="black"/>
</g>
<path d="M83.7625 32.0781C81.6797 32.816 79.4267 33.1954 76.4512 32.7316C79.1717 33.1322 81.1696 32.3733 83.7625 32.0781Z" fill="#383838"/>
<path d="M119.108 45.9716C118.81 47.8056 117.833 49.5343 116.366 50.7149C115.559 51.3684 114.623 51.8533 113.837 52.5279C113.731 52.6122 113.625 52.7176 113.518 52.823C112.158 54.1933 112.052 56.0485 111.797 57.8615C110.351 58.7258 109.926 58.2409 109.119 55.9431C107.588 51.6214 108.141 46.8781 108.396 42.3877C108.609 38.6563 108.566 34.6298 107.015 31.1303C106.419 29.7811 105.739 28.8113 104.932 28.1367C109.289 30.8773 110.5 37.3071 112.115 42.4299C113.306 40.1953 116.047 39.3942 117.939 41.418C119.044 42.6196 119.363 44.3694 119.108 45.9716Z" fill="#383838"/>
<path d="M119.682 25.4594C119.682 25.4594 122.934 12.389 114.22 6.50725C105.484 0.625553 96.0475 7.49808 96.0475 7.49808C96.0475 7.49808 90.8828 -0.428515 75.92 0.583391C61.6161 1.55313 56.3451 23.1405 68.4811 30.0762C68.2898 31.1092 68.2686 32.1844 68.2898 32.8379C68.3111 34.0606 68.3323 35.3044 68.3536 36.5271C68.3749 37.7288 68.5874 38.8461 68.5874 40.0266C68.5874 41.6288 68.7999 43.2521 69.225 44.791C69.4376 45.5499 69.6713 45.9294 70.3515 45.3813C70.9466 44.9175 71.4354 44.3905 71.818 43.7369C73.1783 41.418 73.4546 38.6774 73.6884 36.0001C73.8159 34.7141 73.9221 33.4282 73.8796 32.1633C74.7936 32.4163 75.6437 32.5849 76.4301 32.7114C79.1506 33.1119 81.1485 32.353 83.7415 32.0579C83.8478 32.0157 83.9328 31.9946 84.039 31.9525C84.039 31.9525 84.039 31.9525 84.0603 31.9525C84.1666 31.9103 84.2728 31.8681 84.3791 31.826C84.4854 31.7838 84.5916 31.7417 84.6979 31.6995C84.9105 31.6152 85.123 31.5308 85.3143 31.4254L85.6331 31.2779C85.9944 31.1092 86.3345 30.9406 86.6958 30.7719C86.8658 30.6876 87.0359 30.6033 87.2059 30.5189C87.5672 30.3292 87.9498 30.1605 88.3323 29.9708C88.5661 29.8654 88.7999 29.7389 89.0337 29.6335C89.055 29.6335 89.0762 29.6124 89.0762 29.6124C89.1825 29.5703 89.2888 29.507 89.395 29.4649C89.5226 29.4016 89.6288 29.3595 89.7564 29.2962C90.0114 29.1908 90.2452 29.0643 90.5215 28.9589C90.649 28.8957 90.7766 28.8535 90.9041 28.7903C91.0316 28.727 91.1591 28.6849 91.3079 28.6216C91.3929 28.6005 91.4567 28.5584 91.5417 28.5373C91.6692 28.4951 91.7967 28.4319 91.9243 28.3897C91.988 28.3686 92.073 28.3475 92.1368 28.3054C92.2006 28.2843 92.2856 28.2632 92.3493 28.2211C92.4131 28.2 92.4981 28.1789 92.5619 28.1367C92.7107 28.0946 92.8594 28.0313 92.987 27.9892C93.0507 27.9681 93.1357 27.947 93.1995 27.9259C93.4333 27.8627 93.6458 27.7784 93.8796 27.7151C94.0284 27.6729 94.1984 27.6308 94.3472 27.5886C94.411 27.5675 94.4747 27.5465 94.5598 27.5254C94.666 27.5043 94.7936 27.4621 94.8998 27.4411C94.9848 27.42 95.0699 27.3989 95.1549 27.3778C95.58 27.2724 96.0475 27.1881 96.5151 27.1038C96.6001 27.0827 96.6852 27.0827 96.7914 27.0616C97.0465 27.0194 97.2803 26.9773 97.5566 26.9562C97.6203 26.9562 97.6841 26.9351 97.7266 26.9351C97.8116 26.914 97.9179 26.914 98.0029 26.8929C98.0667 26.8929 98.1517 26.8719 98.2155 26.8719C98.3217 26.8508 98.428 26.8508 98.5343 26.8297C98.5555 26.8297 98.5555 26.8297 98.5768 26.8297C101.276 26.5767 103.295 26.7875 104.847 28.0946C109.204 30.8352 110.415 37.265 112.031 42.3877C113.221 40.1531 115.963 39.352 117.854 41.3758C118.959 42.5564 119.278 44.3061 119.023 45.9083C118.726 47.7424 117.748 49.4711 116.281 50.6516C115.474 51.3052 114.539 51.79 113.752 52.4646C113.646 52.549 113.54 52.6544 113.433 52.7598C112.073 54.1301 111.967 55.9852 111.712 57.7982C111.924 57.6717 112.137 57.5242 112.392 57.3555C113.497 56.5755 114.602 55.7322 115.665 54.9101C121.085 50.6516 127.142 44.5591 127.333 37.2439C127.716 26.1129 119.682 25.4594 119.682 25.4594Z" fill="#383838"/>
<path d="M119.108 45.972C118.81 47.8061 117.833 49.5347 116.366 50.7153C116.047 50.9893 115.686 51.2212 115.346 51.4531C114.836 51.7904 114.305 52.1277 113.837 52.5283C113.731 52.6126 113.624 52.718 113.518 52.8234C112.158 54.1937 112.052 56.0489 111.797 57.8619C111.712 58.4521 111.605 59.0635 111.435 59.6327C111.372 59.8014 111.329 59.9911 111.244 60.1597C110.904 61.003 110.5 61.8252 110.054 62.6263C109.607 63.4063 109.14 64.1863 108.63 64.9241C108.141 65.662 107.61 66.3577 107.078 67.0533C107.015 67.1377 106.951 67.222 106.887 67.2852V67.3063C106.568 67.7069 106.249 68.1074 105.909 68.508C105.909 68.508 105.909 68.508 105.909 68.529C105.803 68.6555 105.697 68.7609 105.612 68.8874C104.74 69.8572 103.784 70.7847 102.785 71.6069C102.679 71.6912 102.594 71.7756 102.487 71.8388C102.36 71.9442 102.211 72.0496 102.062 72.155C101.68 72.4502 101.297 72.7242 100.915 72.9772C95.5374 76.561 88.226 76.9194 82.2961 74.5162C82.0411 74.4107 81.786 74.3053 81.531 74.1788C78.1304 72.4923 76.6001 70.6793 74.3471 67.7279C73.6883 66.8636 73.0082 65.9782 72.5193 64.9874C68.2898 56.4705 68.6511 45.4871 69.9476 36.2956C70.0964 35.1783 70.2026 34.061 70.3514 32.9437C70.3727 32.775 70.5639 31.9529 70.7552 31.1307C70.904 31.1939 71.0315 31.2361 71.1591 31.2783C71.2441 31.3204 71.3291 31.3415 71.4141 31.3626C73.327 32.0583 74.9848 32.501 76.4725 32.7118C79.1931 33.1123 81.1909 32.3534 83.7839 32.0583C83.8902 32.0161 83.9752 31.995 84.0815 31.9529C84.0815 31.9529 84.0815 31.9529 84.1027 31.9529C84.209 31.9107 84.3153 31.8685 84.4215 31.8264C84.5278 31.7842 84.6341 31.7421 84.7403 31.6999C84.9529 31.6156 85.1654 31.5312 85.3567 31.4258L85.6755 31.2783C86.0368 31.1096 86.3769 30.941 86.7382 30.7723C86.9083 30.688 87.0783 30.6037 87.2483 30.5193C87.6096 30.3296 87.9922 30.1609 88.3748 29.9712C88.6086 29.8658 88.8424 29.7393 89.0762 29.6339C89.0974 29.6339 89.1187 29.6128 89.1187 29.6128C89.2249 29.5707 89.3312 29.5074 89.4375 29.4653C89.565 29.402 89.6713 29.3599 89.7988 29.2966C90.0538 29.1912 90.2876 29.0647 90.5639 28.9593C90.6915 28.8961 90.819 28.8539 90.9465 28.7907C91.074 28.7274 91.2015 28.6853 91.3503 28.622C91.4353 28.6009 91.4991 28.5588 91.5841 28.5377C91.7116 28.4955 91.8392 28.4323 91.9667 28.3901C92.0305 28.369 92.1155 28.3479 92.1792 28.3058C92.243 28.2847 92.328 28.2636 92.3918 28.2215C92.4555 28.2004 92.5406 28.1793 92.6043 28.1371C92.7531 28.095 92.9019 28.0317 93.0294 27.9896C93.0932 27.9685 93.1782 27.9474 93.2419 27.9263C93.4757 27.8631 93.6883 27.7788 93.9221 27.7155C94.0708 27.6733 94.2409 27.6312 94.3897 27.589C94.4534 27.5679 94.5172 27.5469 94.6022 27.5258C94.7085 27.5047 94.836 27.4625 94.9423 27.4415C95.0273 27.4204 95.1123 27.3993 95.1973 27.3782C95.6224 27.2728 96.09 27.1885 96.5576 27.1041C96.6426 27.0831 96.7276 27.0831 96.8339 27.062C97.0889 27.0198 97.3227 26.9777 97.599 26.9566C97.6628 26.9566 97.7265 26.9355 97.769 26.9355C97.854 26.9144 97.9603 26.9144 98.0453 26.8933C98.1091 26.8933 98.1941 26.8723 98.2579 26.8723C98.3641 26.8512 98.4704 26.8512 98.5767 26.8301C98.5979 26.8301 98.5979 26.8301 98.6192 26.8301C101.255 26.5771 103.295 27.0831 104.889 28.095C105.165 28.2636 105.42 28.4534 105.676 28.6431C109.267 31.5102 110.458 37.1389 111.903 41.84C111.967 42.0298 112.009 42.1984 112.073 42.3671C113.263 40.1324 116.005 39.3313 117.897 41.3552C119.044 42.62 119.363 44.3698 119.108 45.972Z" fill="#F0C9B6"/>
<path d="M106.695 78.2895C98.3634 81.6625 91.2645 86.1739 86.5462 89.5469C84.9309 90.7064 83.5919 91.7394 82.5929 92.5405C82.1466 92.8989 81.764 93.2151 81.4452 93.4681C80.9139 93.9108 80.5738 94.2059 80.4675 94.2902C80.4675 94.2902 80.4675 94.2902 80.4463 94.3113L80.425 94.3324C81.0839 91.0648 78.0021 84.2555 77.832 83.8761C78.8947 82.6955 79.7661 81.3252 80.5313 79.8917C81.1051 78.8165 81.594 77.7203 82.0616 76.6241C82.5717 75.4224 83.0818 74.1997 83.4643 72.9348C83.7406 71.9862 83.6556 70.4051 84.9096 71.3959C86.0998 72.3235 87.7364 72.3446 89.2454 72.3024C90.5419 72.2813 91.8597 72.2392 93.1774 72.2181C95.239 72.1759 97.1094 71.9229 98.746 70.5737C99.3198 70.1099 100.468 68.2337 101.339 68.5921C101.828 68.7818 102.317 70.1099 102.72 71.3959C103.039 72.45 103.273 73.4619 103.379 73.8835C103.762 75.4857 106.695 78.2895 106.695 78.2895Z" fill="#F0C9B6"/>
<path d="M112.115 42.4509L109.522 47.0045C108.353 41.5444 106.759 34.0816 101.084 31.5518C96.2593 29.4015 90.7121 32.4372 85.9512 33.0697C82.9756 33.4491 79.9363 33.3859 77.0032 32.901C76.9182 32.8799 76.7482 32.8378 76.4931 32.7745C75.558 32.5005 73.7301 31.9734 73.5176 32.0999C73.8151 31.868 90.6058 18.0176 90.6058 18.0176L108.629 22.8874L112.115 42.4509Z" fill="#383838"/>
<g opacity="0.8">
<path opacity="0.8" d="M109.521 46.9844C105.376 31.7004 94.5794 33.9561 94.5794 33.9561C78.4476 37.9616 70.7324 31.1312 70.7324 31.1312C70.8812 31.1945 71.0087 31.2367 71.1363 31.2788C71.2213 31.321 71.3063 31.3421 71.3913 31.3631C72.1352 31.6372 72.8366 31.8691 73.5167 32.0588C74.5794 32.375 75.5571 32.5859 76.4497 32.7123H76.471C76.726 32.7756 76.9173 32.8388 76.9811 32.8388C79.9354 33.3237 82.9747 33.408 85.929 33.0075C90.6899 32.375 96.216 29.3393 101.062 31.4896C106.737 34.0616 108.352 41.5244 109.521 46.9844Z" fill="#E4A07E"/>
</g>
<g opacity="0.8">
<path opacity="0.8" d="M111.584 47.995C111.563 47.995 111.52 47.995 111.499 47.974C111.329 47.9318 111.223 47.7421 111.265 47.5734C112.009 45.0647 113.051 43.5469 114.411 43.0409C115.686 42.5771 116.728 43.2307 116.77 43.2517C116.919 43.3571 116.961 43.5469 116.876 43.7155C116.77 43.8631 116.579 43.9053 116.409 43.8209C116.366 43.7998 115.601 43.315 114.645 43.6734C113.518 44.095 112.583 45.5074 111.924 47.7631C111.86 47.9107 111.712 47.995 111.584 47.995Z" fill="#E4A07E"/>
</g>
<g opacity="0.8">
<path opacity="0.8" d="M102.487 71.9219C102.423 72.0273 97.8109 78.942 80.5527 79.8695C81.1266 78.7944 81.6154 77.6982 82.083 76.6019C82.3593 75.9695 82.6144 75.3371 82.8694 74.7046C88.5655 77.0025 95.558 76.6652 100.723 73.2289C101.105 72.9759 101.467 72.723 101.828 72.4489C101.955 72.3435 102.104 72.2381 102.232 72.1327C102.296 72.0694 102.381 71.9851 102.487 71.9219Z" fill="#E4A07E"/>
</g>
<g opacity="0.8">
<path opacity="0.8" d="M106.695 78.2891C98.3634 81.6621 91.2645 86.1735 86.5462 89.5465C84.9309 90.706 83.5919 91.739 82.5929 92.5401C82.1466 92.8984 81.764 93.2147 81.4452 93.4676C80.9139 93.9103 80.5738 94.2055 80.4675 94.2898C80.4675 94.2898 80.4675 94.2898 80.4463 94.3109L80.425 94.332C81.0839 91.0644 78.0021 84.2551 77.832 83.8756C78.0021 84.1075 80.0212 87.0167 80.9989 89.8416C81.3177 90.7481 82.4016 91.0854 83.188 90.5373C87.4388 87.5227 98.6822 79.9123 106.695 78.2891Z" fill="#E4A07E"/>
</g>
<g opacity="0.8">
<path opacity="0.8" d="M115.345 51.4316C114.835 51.7689 114.304 52.1062 113.836 52.5068C113.73 52.5911 113.623 52.6965 113.517 52.8019C112.157 54.1722 112.051 56.0274 111.796 57.8404C111.711 58.4306 111.604 59.042 111.434 59.6112C111.37 59.7799 111.328 59.9696 111.243 60.1382C110.903 60.9815 110.499 61.8037 110.053 62.6048C110.265 60.9815 110.478 58.6415 110.648 56.8074C110.797 55.0787 111.753 53.5398 113.262 52.6544L115.345 51.4316Z" fill="#E4A07E"/>
</g>
<path d="M131.031 86.2374C130.903 86.7434 130.776 87.2072 130.67 87.6709L128.077 86.4904L121.445 83.4336C121.637 83.4758 124.123 84.1714 127.694 85.2255C128.714 85.5206 129.841 85.858 131.031 86.2374Z" fill="#00A3AC"/>
<path opacity="0.15" d="M159.702 110.121C159.043 104.893 154.091 99.7071 149.16 98.0839C144.059 96.3973 142.784 90.1994 138.767 91.3378C138.236 91.4854 137.683 91.5697 137.109 91.5697C133.305 91.654 128.905 89.1453 128.905 89.1453L128.097 86.4469L127.715 85.2031C128.735 85.5193 129.861 85.8567 131.052 86.215C140.446 89.1243 153.793 93.7832 156.897 97.4514C158.002 98.8006 159.086 103.565 159.702 110.121Z" fill="black"/>
<path opacity="0.2" d="M157.173 150.619C154.941 159.642 151.328 167.505 145.802 171.975C144.42 173.092 142.911 173.977 141.296 174.631C139.851 175.2 138.299 175.601 136.641 175.748C132.561 176.149 128.926 175.432 125.717 173.788C126.057 173.893 148.352 179.205 157.173 150.619Z" fill="black"/>
<path d="M68.1607 87.2695V87.3117C68.1607 87.3539 68.1394 87.4382 68.1182 87.5436C68.1182 87.5647 68.1182 87.5858 68.1182 87.5858C68.1182 87.6068 68.1182 87.6068 68.1182 87.6279C68.1182 87.6701 68.0969 87.6912 68.0969 87.7333C68.0969 87.7544 68.0757 87.7755 68.0757 87.7966C68.0757 87.8387 68.0544 87.8598 68.0544 87.902C68.0544 87.9231 68.0544 87.9652 68.0332 87.9863C68.0332 88.0285 68.0119 88.0706 68.0119 88.1128C67.9907 88.1971 67.9694 88.2814 67.9482 88.3868C67.9482 88.4079 67.9269 88.4501 67.9269 88.4712C67.9269 88.5133 67.9056 88.5344 67.9056 88.5977C67.9056 88.6187 67.8844 88.6609 67.8844 88.682C67.8206 88.935 67.7569 89.209 67.6718 89.5042C67.6506 89.5463 67.6506 89.5885 67.6293 89.6306C67.6081 89.736 67.5656 89.8415 67.5443 89.9469C67.5018 90.0523 67.4806 90.1788 67.4593 90.2842C67.4381 90.3263 67.4381 90.3685 67.4168 90.4107C67.3743 90.5793 67.3105 90.748 67.268 90.9166C67.2468 91.0009 67.2043 91.0853 67.183 91.1696C66.8642 92.1604 66.4604 93.2356 65.9503 94.3318C65.929 94.395 65.9078 94.4372 65.8865 94.5004C65.844 94.5637 65.8228 94.6269 65.8015 94.6902C65.7802 94.7323 65.759 94.7956 65.7377 94.8377C65.7165 94.8799 65.6952 94.9221 65.674 94.9642C65.6527 95.0064 65.6315 95.0696 65.6102 95.1118C65.4827 95.3859 65.3339 95.6388 65.2064 95.8918C65.1851 95.9551 65.1426 95.9972 65.1214 96.0394C65.0364 96.187 64.9513 96.3345 64.8663 96.5032C64.8451 96.5453 64.8026 96.5875 64.7813 96.6507C64.675 96.8194 64.59 96.988 64.4837 97.1356C64.42 97.2199 64.3775 97.3043 64.3137 97.4097C64.2712 97.4518 64.25 97.5151 64.2074 97.5572C64.1012 97.7048 64.0162 97.8313 63.9099 97.9789C63.8461 98.0421 63.7824 98.1264 63.7186 98.2108C63.4636 98.5481 63.1873 98.8854 62.8897 99.2016C62.8259 99.2648 62.7622 99.3492 62.6984 99.4124C62.4434 99.6654 62.1883 99.8973 61.9333 100.129C61.8908 100.171 61.8482 100.192 61.8057 100.235C61.7632 100.277 61.7207 100.298 61.6782 100.34C61.5932 100.403 61.5082 100.488 61.4019 100.551C61.3594 100.593 61.3169 100.614 61.2744 100.635C61.1681 100.698 61.0619 100.783 60.9556 100.846C60.8706 100.909 60.7856 100.951 60.7005 100.994C60.6368 101.036 60.5943 101.057 60.5518 101.078C60.3605 101.204 60.4455 101.499 60.6793 101.478H60.7005C60.7643 101.478 60.8493 101.478 60.9131 101.457C60.9981 101.457 61.0831 101.457 61.1894 101.436C61.2319 101.436 61.2744 101.436 61.3169 101.436H61.4657C61.5082 101.436 61.5507 101.436 61.6145 101.436H61.8908C61.9333 101.436 61.9758 101.436 62.0183 101.436C62.082 101.436 62.1458 101.436 62.2096 101.436C62.2733 101.436 62.3158 101.436 62.3796 101.436C62.4434 101.436 62.5071 101.436 62.5709 101.436C62.6559 101.436 62.7622 101.457 62.8472 101.457C62.911 101.457 62.9747 101.457 63.0172 101.478C63.1022 101.478 63.166 101.499 63.251 101.499C63.3148 101.499 63.3998 101.521 63.4636 101.521C63.5486 101.521 63.6123 101.542 63.6974 101.542C63.7611 101.542 63.8036 101.563 63.8674 101.563C63.8886 101.563 63.9099 101.563 63.9311 101.584C63.9949 101.605 64.0799 101.605 64.1437 101.626C64.2074 101.647 64.2925 101.647 64.3562 101.668C64.505 101.71 64.6538 101.731 64.8026 101.774L65.0151 101.837C65.0789 101.858 65.1639 101.879 65.2276 101.9C65.6527 102.048 65.7165 102.617 65.3127 102.849C65.2914 102.87 65.2914 102.87 65.2701 102.87C65.2276 102.891 65.1851 102.912 65.1426 102.933C65.0151 102.996 64.8663 103.081 64.7175 103.144C64.675 103.165 64.6325 103.186 64.5688 103.207C64.505 103.228 64.4625 103.27 64.3987 103.291C64.335 103.312 64.25 103.355 64.1862 103.376C63.9949 103.439 63.8036 103.523 63.5911 103.608C63.5486 103.629 63.5061 103.629 63.4636 103.65C63.2723 103.713 63.0597 103.776 62.8259 103.839C62.7197 103.882 62.5921 103.903 62.4646 103.924C62.4434 103.924 62.4221 103.945 62.4009 103.945C62.3371 103.966 62.2521 103.987 62.1883 103.987C62.0395 104.029 61.8695 104.05 61.7207 104.092C61.5719 104.114 61.4019 104.156 61.2531 104.177H61.2319C61.1469 104.198 61.0619 104.198 60.9768 104.219C60.8918 104.219 60.8068 104.24 60.7218 104.261C60.5518 104.282 60.3605 104.303 60.1904 104.324C60.1054 104.324 59.9992 104.345 59.9141 104.345C59.8291 104.345 59.7229 104.367 59.6378 104.367C59.5528 104.367 59.4465 104.367 59.3615 104.388C59.2553 104.388 59.1277 104.388 59.0215 104.409H58.5539C58.1075 104.409 57.8313 104.894 58.065 105.273C58.1076 105.336 58.1501 105.421 58.2138 105.505C58.2351 105.547 58.2563 105.568 58.2776 105.61C58.2776 105.61 58.2776 105.631 58.2988 105.631C58.3413 105.695 58.3839 105.758 58.4264 105.821C58.4901 105.948 58.5751 106.095 58.6602 106.243C58.6814 106.285 58.7239 106.327 58.7452 106.39C58.8727 106.601 59.0002 106.833 59.1277 107.086C59.149 107.128 59.1915 107.191 59.2128 107.234C59.3615 107.529 59.5316 107.845 59.7016 108.182C59.7229 108.245 59.7654 108.288 59.7866 108.351C59.8079 108.414 59.8504 108.456 59.8716 108.52C59.9141 108.625 59.9779 108.709 60.0204 108.815C60.318 109.405 60.6368 110.08 60.9556 110.796C60.9981 110.881 61.0193 110.965 61.0619 111.049C61.1044 111.134 61.1469 111.239 61.1894 111.323C61.2531 111.45 61.2957 111.555 61.3382 111.682C61.4232 111.871 61.5082 112.061 61.572 112.251C61.6357 112.377 61.6782 112.504 61.742 112.63C62.2733 113.937 62.8259 115.413 63.3573 117.015C63.3785 117.079 63.3998 117.142 63.421 117.205C63.4423 117.289 63.4848 117.374 63.5061 117.458C63.5486 117.563 63.5698 117.69 63.6123 117.795C63.6548 117.901 63.6761 118.006 63.7186 118.112C63.9524 118.871 64.1862 119.651 64.42 120.473C64.4412 120.578 64.4837 120.662 64.505 120.768C64.5263 120.81 64.5263 120.852 64.5475 120.915C64.59 121.042 64.6325 121.189 64.6538 121.337C64.675 121.379 64.675 121.421 64.6963 121.485C64.7388 121.611 64.76 121.716 64.7813 121.843C64.8026 121.906 64.8238 121.969 64.8238 122.033C64.8451 122.138 64.8876 122.244 64.9088 122.37C64.9513 122.518 64.9726 122.644 65.0151 122.792C65.0364 122.876 65.0576 122.96 65.0789 123.045C65.1001 123.129 65.1214 123.213 65.1426 123.319C65.1851 123.508 65.2276 123.719 65.2914 123.93C65.5039 124.879 65.7165 125.848 65.929 126.86C65.9503 127.029 65.9928 127.177 66.014 127.345C66.0565 127.514 66.0778 127.661 66.0991 127.83C66.1628 128.146 66.2266 128.484 66.2691 128.8C66.2691 128.821 66.2691 128.842 66.2903 128.863C66.3328 129.137 66.3754 129.411 66.4391 129.706C66.4391 129.748 66.4604 129.791 66.4604 129.812C66.4816 129.875 66.4816 129.938 66.5029 130.001C66.5454 130.254 66.5879 130.529 66.6304 130.781L66.6942 131.287C66.7367 131.625 66.8004 131.962 66.8429 132.299C66.8642 132.489 66.8854 132.7 66.928 132.89C66.9492 133.058 66.9705 133.206 66.9917 133.374C67.0342 133.733 67.0767 134.091 67.1192 134.45C67.1405 134.639 67.1618 134.808 67.183 134.998C67.2255 135.335 67.2468 135.651 67.2893 135.989C67.3105 136.305 67.353 136.621 67.3743 136.958C67.3955 137.106 67.3955 137.253 67.4168 137.38C67.4806 138.139 67.5443 138.919 67.5868 139.699C67.6081 139.846 67.6081 139.994 67.6081 140.142C67.6293 140.352 67.6293 140.542 67.6506 140.753C67.6506 140.901 67.6718 141.069 67.6718 141.217C67.6931 141.849 67.7144 142.503 67.7356 143.156C67.7356 143.367 67.7356 143.578 67.7569 143.768C67.7569 143.978 67.7569 144.189 67.7569 144.379C67.7569 144.527 67.7569 144.653 67.7569 144.801V145.096C67.7781 147.309 67.7144 149.607 67.5868 151.989C67.5231 153.149 67.438 154.329 67.3318 155.531C67.3318 155.531 67.3743 156.206 67.438 157.449C67.438 157.555 67.4593 157.681 67.4593 157.808C67.4806 158.04 67.4806 158.272 67.5018 158.525C67.5231 158.925 67.5443 159.347 67.5656 159.811C67.6081 160.569 67.6293 161.413 67.6718 162.361C67.6931 162.593 67.6931 162.825 67.7144 163.057C67.7781 164.68 67.8419 166.535 67.9056 168.58C67.9269 168.939 67.9269 169.318 67.9482 169.698C67.9694 170.562 67.9907 171.426 68.0119 172.333C68.0119 172.628 68.0332 172.923 68.0332 173.239C68.0544 173.851 68.0544 174.483 68.0757 175.116C68.0757 175.474 68.0969 175.832 68.0969 176.212C68.0969 176.486 68.0969 176.76 68.1182 177.055C68.1394 177.856 68.1394 178.699 68.1394 179.522C68.1394 180.028 68.1394 180.555 68.1394 181.082C68.1394 181.314 68.1394 181.545 68.1394 181.777C68.1394 181.925 68.1394 182.072 68.1394 182.199C68.1394 182.937 68.1394 183.675 68.1394 184.434C68.1394 184.771 68.1394 185.129 68.1394 185.467C68.1394 185.741 68.1394 186.015 68.1394 186.268C68.1394 186.731 68.1394 187.195 68.1394 187.68C68.1182 189.493 68.0969 191.348 68.0332 193.225C68.0119 193.962 67.9907 194.721 67.9694 195.459C67.9269 196.45 67.9056 197.462 67.8631 198.474C67.8206 199.591 67.7569 200.729 67.7144 201.868C67.5656 204.756 67.3743 207.644 67.1192 210.49C66.9917 212.008 66.8429 213.526 66.6729 215.002C66.5879 215.718 66.5029 216.435 66.4179 217.131C65.1851 216.962 63.9524 216.793 62.7197 216.604C57.1511 215.76 51.6463 214.622 46.2266 213.252C44.6538 212.851 43.081 212.451 41.4869 212.029C42.0608 208.003 42.9535 201.362 42.9535 198.179V197.947C42.9322 196.555 42.9109 195.143 42.8897 193.773C42.8897 193.014 42.8684 192.234 42.8472 191.475C42.7834 187.933 42.6772 184.476 42.5709 181.292C42.3158 174.315 41.9333 168.433 41.3807 164.765C41.3169 164.322 41.2531 163.858 41.2106 163.373C41.0406 161.602 40.9768 159.515 40.9981 157.196C41.1469 147.625 43.0172 134.112 45.3552 121.969C48.2244 107.107 51.7951 94.2685 53.8142 93.088C55.7696 91.8442 62.3796 89.3355 68.1607 87.2695Z" fill="#00A3AC"/>
<path d="M86.2697 50.3574C86.2697 50.3574 86.4185 52.6975 84.7394 53.9202C83.0603 55.1429 82.1464 57.8835 86.9711 57.8202C86.9711 57.8202 83.3791 56.8294 84.4843 55.3748C85.6108 53.9202 86.4185 52.7185 86.2697 50.3574Z" fill="#E4A07E"/>
<path d="M73.3262 43.7168C73.5175 43.6958 78.2571 42.3255 80.9138 43.0211C80.9138 43.0211 81.3177 41.3136 80.8076 40.4492C80.8076 40.4492 75.069 41.1238 73.4112 42.5574L73.3262 43.7168Z" fill="#383838"/>
<path d="M89.3089 39.3524C89.3089 39.3524 89.1177 40.7859 89.5215 41.6714C89.5215 41.6714 93.4535 40.1957 97.3004 41.2708C97.3004 41.2708 97.343 40.3854 97.1304 40.0481C97.1304 40.0481 91.7957 38.8043 89.3089 39.3524Z" fill="#383838"/>
<path d="M93.9859 59.4434C93.9859 59.4434 95.0061 64.9245 88.7574 66.6532C83.869 67.5808 81.8711 62.2261 81.8711 62.2261C81.8711 62.2261 89.225 62.5423 93.9859 59.4434Z" fill="#E4A07E"/>
<path d="M93.9859 59.4434C89.395 67.4121 81.8711 62.2261 81.8711 62.2261C81.8711 62.2261 89.225 62.5423 93.9859 59.4434Z" fill="white"/>
<path opacity="0.2" d="M125.951 184.833C126.185 186.583 128.544 193.392 129.309 199.97C130.436 199.274 131.541 198.515 132.604 197.714C131.987 192.823 131.35 188.649 130.712 185.74V185.719C130.67 185.487 130.606 185.255 130.563 185.044C130.096 183.104 129.798 180.617 129.607 177.771C129.012 168.537 129.756 155.361 131.073 143.45C132.646 129.199 135.027 116.761 136.876 115.054L136.855 114.906C136.855 114.906 126.419 121.378 122.976 163.056C122.551 168.242 122.232 173.955 122.062 180.301C122.041 180.933 121.722 181.439 121.297 181.734C121.169 181.819 121.042 181.882 120.914 181.945C122.083 181.671 125.462 181.228 125.951 184.833Z" fill="black"/>
<path d="M159.383 212.178H127.523V105.654L158.639 107.362L159.383 212.178Z" fill="#00A3AC"/>
<path d="M27.6081 69.2889C26.4392 74.0744 26.843 81.9589 20.7218 81.2632C14.6007 80.5675 17.0662 71.2917 18.2776 66.7803C19.5104 62.2899 22.5709 59.191 25.1639 59.8867C27.7569 60.5823 28.7133 64.7565 27.6081 69.2889Z" fill="#F0C9B6"/>
</g>
<defs>
<clipPath id="clip0">
<rect width="160" height="166" fill="white" transform="translate(0 0.5)"/>
</clipPath>
</defs>
</svg>
