<svg width="308" height="211" viewBox="0 0 308 211" fill="none" xmlns="http://www.w3.org/2000/svg">
<g filter="url(#filter0_d_18_3)">
<path d="M154 143C174.711 143 191.5 125.091 191.5 103C191.5 80.9086 174.711 63 154 63C133.289 63 116.5 80.9086 116.5 103C116.5 125.091 133.289 143 154 143Z" fill="#323232"/>
<path d="M4 23C4 11.9543 12.3947 3 22.75 3H285.25C295.605 3 304 11.9543 304 23V183C304 194.046 295.605 203 285.25 203H22.75C12.3947 203 4 194.046 4 183V23ZM60.25 23C60.25 45.0914 43.4607 63 22.75 63V143C43.4607 143 60.25 160.909 60.25 183H247.75C247.75 160.909 264.539 143 285.25 143V63C264.539 63 247.75 45.0914 247.75 23H60.25Z" fill="#323232"/>
</g>
<defs>
<filter id="filter0_d_18_3" x="0" y="0" width="308" height="211" filterUnits="userSpaceOnUse" color-interpolation-filters="sRGB">
<feFlood flood-opacity="0" result="BackgroundImageFix"/>
<feColorMatrix in="SourceAlpha" type="matrix" values="0 0 0 0 0 0 0 0 0 0 0 0 0 0 0 0 0 0 127 0" result="hardAlpha"/>
<feOffset dy="4"/>
<feGaussianBlur stdDeviation="2"/>
<feComposite in2="hardAlpha" operator="out"/>
<feColorMatrix type="matrix" values="0 0 0 0 0 0 0 0 0 0 0 0 0 0 0 0 0 0 0.25 0"/>
<feBlend mode="normal" in2="BackgroundImageFix" result="effect1_dropShadow_18_3"/>
<feBlend mode="normal" in="SourceGraphic" in2="effect1_dropShadow_18_3" result="shape"/>
</filter>
</defs>
</svg>
