<svg width="168" height="60" viewBox="0 0 168 60" fill="none" xmlns="http://www.w3.org/2000/svg">
<rect width="168" height="60" rx="8" fill="#F4333D"/>
<path d="M19.5602 29L16.9322 24.23H16.1942V29H13.1162V16.364H18.2822C19.2782 16.364 20.1242 16.538 20.8202 16.886C21.5282 17.234 22.0562 17.714 22.4042 18.326C22.7522 18.926 22.9262 19.598 22.9262 20.342C22.9262 21.182 22.6862 21.932 22.2062 22.592C21.7382 23.252 21.0422 23.72 20.1182 23.996L23.0342 29H19.5602ZM16.1942 22.052H18.1022C18.6662 22.052 19.0862 21.914 19.3622 21.638C19.6502 21.362 19.7942 20.972 19.7942 20.468C19.7942 19.988 19.6502 19.61 19.3622 19.334C19.0862 19.058 18.6662 18.92 18.1022 18.92H16.1942V22.052Z" fill="white"/>
<path d="M34.3264 23.816C34.3264 24.104 34.3084 24.404 34.2724 24.716H27.3064C27.3544 25.34 27.5524 25.82 27.9004 26.156C28.2604 26.48 28.6984 26.642 29.2144 26.642C29.9824 26.642 30.5164 26.318 30.8164 25.67H34.0924C33.9244 26.33 33.6184 26.924 33.1744 27.452C32.7424 27.98 32.1964 28.394 31.5364 28.694C30.8764 28.994 30.1384 29.144 29.3224 29.144C28.3384 29.144 27.4624 28.934 26.6944 28.514C25.9264 28.094 25.3264 27.494 24.8944 26.714C24.4624 25.934 24.2464 25.022 24.2464 23.978C24.2464 22.934 24.4564 22.022 24.8764 21.242C25.3084 20.462 25.9084 19.862 26.6764 19.442C27.4444 19.022 28.3264 18.812 29.3224 18.812C30.2944 18.812 31.1584 19.016 31.9144 19.424C32.6704 19.832 33.2584 20.414 33.6784 21.17C34.1104 21.926 34.3264 22.808 34.3264 23.816ZM31.1764 23.006C31.1764 22.478 30.9964 22.058 30.6364 21.746C30.2764 21.434 29.8264 21.278 29.2864 21.278C28.7704 21.278 28.3324 21.428 27.9724 21.728C27.6244 22.028 27.4084 22.454 27.3244 23.006H31.1764Z" fill="white"/>
<path d="M41.5482 26.39V29H39.9822C38.8662 29 37.9962 28.73 37.3722 28.19C36.7482 27.638 36.4362 26.744 36.4362 25.508V21.512H35.2122V18.956H36.4362V16.508H39.5142V18.956H41.5302V21.512H39.5142V25.544C39.5142 25.844 39.5862 26.06 39.7302 26.192C39.8742 26.324 40.1142 26.39 40.4502 26.39H41.5482Z" fill="white"/>
<path d="M46.3407 20.63C46.7007 20.078 47.1507 19.646 47.6907 19.334C48.2307 19.01 48.8307 18.848 49.4907 18.848V22.106H48.6447C47.8767 22.106 47.3007 22.274 46.9167 22.61C46.5327 22.934 46.3407 23.51 46.3407 24.338V29H43.2627V18.956H46.3407V20.63Z" fill="white"/>
<path d="M52.5099 17.912C51.9699 17.912 51.5259 17.756 51.1779 17.444C50.8419 17.12 50.6739 16.724 50.6739 16.256C50.6739 15.776 50.8419 15.38 51.1779 15.068C51.5259 14.744 51.9699 14.582 52.5099 14.582C53.0379 14.582 53.4699 14.744 53.8059 15.068C54.1539 15.38 54.3279 15.776 54.3279 16.256C54.3279 16.724 54.1539 17.12 53.8059 17.444C53.4699 17.756 53.0379 17.912 52.5099 17.912ZM54.0399 18.956V29H50.9619V18.956H54.0399Z" fill="white"/>
<path d="M65.7385 23.816C65.7385 24.104 65.7205 24.404 65.6845 24.716H58.7185C58.7665 25.34 58.9645 25.82 59.3125 26.156C59.6725 26.48 60.1105 26.642 60.6265 26.642C61.3945 26.642 61.9285 26.318 62.2285 25.67H65.5045C65.3365 26.33 65.0305 26.924 64.5865 27.452C64.1545 27.98 63.6085 28.394 62.9485 28.694C62.2885 28.994 61.5505 29.144 60.7345 29.144C59.7505 29.144 58.8745 28.934 58.1065 28.514C57.3385 28.094 56.7385 27.494 56.3065 26.714C55.8745 25.934 55.6585 25.022 55.6585 23.978C55.6585 22.934 55.8685 22.022 56.2885 21.242C56.7205 20.462 57.3205 19.862 58.0885 19.442C58.8565 19.022 59.7385 18.812 60.7345 18.812C61.7065 18.812 62.5705 19.016 63.3265 19.424C64.0825 19.832 64.6705 20.414 65.0905 21.17C65.5225 21.926 65.7385 22.808 65.7385 23.816ZM62.5885 23.006C62.5885 22.478 62.4085 22.058 62.0485 21.746C61.6885 21.434 61.2385 21.278 60.6985 21.278C60.1825 21.278 59.7445 21.428 59.3845 21.728C59.0365 22.028 58.8205 22.454 58.7365 23.006H62.5885Z" fill="white"/>
<path d="M71.8803 26.12L74.0583 18.956H77.3343L73.7703 29H69.9723L66.4083 18.956H69.7023L71.8803 26.12Z" fill="white"/>
<path d="M88.0979 23.816C88.0979 24.104 88.0799 24.404 88.0439 24.716H81.0779C81.1259 25.34 81.3239 25.82 81.6719 26.156C82.0319 26.48 82.4699 26.642 82.9859 26.642C83.7539 26.642 84.2879 26.318 84.5879 25.67H87.8639C87.6959 26.33 87.3899 26.924 86.9459 27.452C86.5139 27.98 85.9679 28.394 85.3079 28.694C84.6479 28.994 83.9099 29.144 83.0939 29.144C82.1099 29.144 81.2339 28.934 80.4659 28.514C79.6979 28.094 79.0979 27.494 78.6659 26.714C78.2339 25.934 78.0179 25.022 78.0179 23.978C78.0179 22.934 78.2279 22.022 78.6479 21.242C79.0799 20.462 79.6799 19.862 80.4479 19.442C81.2159 19.022 82.0979 18.812 83.0939 18.812C84.0659 18.812 84.9299 19.016 85.6859 19.424C86.4419 19.832 87.0299 20.414 87.4499 21.17C87.8819 21.926 88.0979 22.808 88.0979 23.816ZM84.9479 23.006C84.9479 22.478 84.7679 22.058 84.4079 21.746C84.0479 21.434 83.5979 21.278 83.0579 21.278C82.5419 21.278 82.1039 21.428 81.7439 21.728C81.3959 22.028 81.1799 22.454 81.0959 23.006H84.9479Z" fill="white"/>
<path d="M107.846 16.364V29H104.768V21.422L101.942 29H99.4581L96.6141 21.404V29H93.5361V16.364H97.1721L100.718 25.112L104.228 16.364H107.846Z" fill="white"/>
<path d="M120.32 18.956L114.02 33.77H110.708L113.012 28.658L108.926 18.956H112.364L114.686 25.238L116.99 18.956H120.32Z" fill="white"/>
<path d="M122.981 17.912C122.441 17.912 121.997 17.756 121.649 17.444C121.313 17.12 121.145 16.724 121.145 16.256C121.145 15.776 121.313 15.38 121.649 15.068C121.997 14.744 122.441 14.582 122.981 14.582C123.509 14.582 123.941 14.744 124.277 15.068C124.625 15.38 124.799 15.776 124.799 16.256C124.799 16.724 124.625 17.12 124.277 17.444C123.941 17.756 123.509 17.912 122.981 17.912ZM124.511 18.956V29H121.433V18.956H124.511Z" fill="white"/>
<path d="M132.861 18.848C134.037 18.848 134.973 19.232 135.669 20C136.377 20.756 136.731 21.8 136.731 23.132V29H133.671V23.546C133.671 22.874 133.497 22.352 133.149 21.98C132.801 21.608 132.333 21.422 131.745 21.422C131.157 21.422 130.689 21.608 130.341 21.98C129.993 22.352 129.819 22.874 129.819 23.546V29H126.741V18.956H129.819V20.288C130.131 19.844 130.551 19.496 131.079 19.244C131.607 18.98 132.201 18.848 132.861 18.848Z" fill="white"/>
<path d="M143.91 21.512H142.254V29H139.176V21.512H138.06V18.956H139.176V18.668C139.176 17.432 139.53 16.496 140.238 15.86C140.946 15.212 141.984 14.888 143.352 14.888C143.58 14.888 143.748 14.894 143.856 14.906V17.516C143.268 17.48 142.854 17.564 142.614 17.768C142.374 17.972 142.254 18.338 142.254 18.866V18.956H143.91V21.512Z" fill="white"/>
<path d="M149.928 29.144C148.944 29.144 148.056 28.934 147.264 28.514C146.484 28.094 145.866 27.494 145.41 26.714C144.966 25.934 144.744 25.022 144.744 23.978C144.744 22.946 144.972 22.04 145.428 21.26C145.884 20.468 146.508 19.862 147.3 19.442C148.092 19.022 148.98 18.812 149.964 18.812C150.948 18.812 151.836 19.022 152.628 19.442C153.42 19.862 154.044 20.468 154.5 21.26C154.956 22.04 155.184 22.946 155.184 23.978C155.184 25.01 154.95 25.922 154.482 26.714C154.026 27.494 153.396 28.094 152.592 28.514C151.8 28.934 150.912 29.144 149.928 29.144ZM149.928 26.48C150.516 26.48 151.014 26.264 151.422 25.832C151.842 25.4 152.052 24.782 152.052 23.978C152.052 23.174 151.848 22.556 151.44 22.124C151.044 21.692 150.552 21.476 149.964 21.476C149.364 21.476 148.866 21.692 148.47 22.124C148.074 22.544 147.876 23.162 147.876 23.978C147.876 24.782 148.068 25.4 148.452 25.832C148.848 26.264 149.34 26.48 149.928 26.48Z" fill="white"/>
<path d="M39.846 44.1422C41.4255 44.1422 42.386 43.3169 42.386 42.0077C42.386 41.1113 41.8382 40.4994 40.7069 40.2504L39.597 40.0013C39.1772 39.9017 38.9566 39.7665 38.9566 39.5175C38.9566 39.2685 39.163 39.112 39.6681 39.112C40.2537 39.1324 40.8132 39.3592 41.2476 39.7523L42.1797 38.3862C41.4464 37.8733 40.5615 37.6226 39.6681 37.6747C38.1882 37.6747 37.1921 38.3862 37.1921 39.6456C37.1824 40.0926 37.3407 40.527 37.6358 40.863C37.9309 41.1989 38.3413 41.4119 38.7859 41.4599L39.8887 41.7231C40.4365 41.8441 40.6002 42.0078 40.6002 42.2212C40.6002 42.4346 40.3796 42.641 39.8887 42.641C39.1929 42.6273 38.5226 42.3763 37.989 41.9295L37 43.2529C37.8142 43.8756 38.8221 44.1906 39.846 44.1422V44.1422Z" fill="white"/>
<path d="M44.2285 39.7733C44.4427 39.7733 44.6521 39.7097 44.8301 39.5905C45.0081 39.4714 45.1467 39.3021 45.2284 39.104C45.31 38.906 45.331 38.6882 45.2887 38.4782C45.2464 38.2682 45.1427 38.0756 44.9907 37.9246C44.8388 37.7736 44.6454 37.6712 44.4351 37.6303C44.2249 37.5893 44.0072 37.6118 43.8097 37.6947C43.6122 37.7777 43.4438 37.9174 43.3259 38.0962C43.2079 38.275 43.1457 38.4847 43.1471 38.6989C43.1451 38.8412 43.1718 38.9823 43.2256 39.114C43.2793 39.2457 43.359 39.3652 43.46 39.4655C43.5609 39.5657 43.6809 39.6446 43.813 39.6975C43.945 39.7504 44.0863 39.7762 44.2285 39.7733Z" fill="white"/>
<path d="M43.062 44.0002H45.3957L44.9048 40.1367C44.4638 40.2506 44.0011 40.2506 43.5601 40.1367L43.062 44.0002Z" fill="white"/>
<path d="M46.4912 43.9984H48.3838V40.6544C48.3838 39.8362 48.7822 39.331 49.5507 39.331C50.3191 39.331 50.6677 39.7508 50.6677 40.6544V43.9984H52.5318V40.1848C52.5318 38.5199 51.6994 37.6661 50.2764 37.6661C49.9057 37.65 49.5371 37.7292 49.2058 37.8961C48.8745 38.063 48.5915 38.3121 48.3838 38.6195V38.2211C48.3893 38.1627 48.3818 38.1039 48.362 38.0487C48.3421 37.9936 48.3103 37.9435 48.2688 37.902C48.2274 37.8606 48.1773 37.8288 48.1222 37.8089C48.067 37.789 48.0081 37.7816 47.9498 37.7871H46.5268L46.4912 43.9984Z" fill="white"/>
<path d="M58.6288 37.7884C58.5704 37.7829 58.5116 37.7903 58.4564 37.8102C58.4013 37.8301 58.3512 37.8619 58.3097 37.9033C58.2683 37.9448 58.2365 37.9949 58.2166 38.05C58.1967 38.1052 58.1893 38.164 58.1948 38.2224V38.5995C57.9877 38.2945 57.7052 38.0484 57.3748 37.8851C57.0444 37.7218 56.6773 37.6468 56.3093 37.6674C55.5433 37.7411 54.8323 38.0975 54.3148 38.6671C53.7974 39.2367 53.5107 39.9787 53.5107 40.7482C53.5107 41.5177 53.7974 42.2597 54.3148 42.8293C54.8323 43.3989 55.5433 43.7553 56.3093 43.829C56.6652 43.8514 57.0214 43.7897 57.349 43.6487C57.6765 43.5078 57.9663 43.2917 58.1948 43.0179V43.4305C58.1952 43.6255 58.1556 43.8184 58.0783 43.9973C58.0011 44.1763 57.8879 44.3375 57.7458 44.4709C57.6037 44.6043 57.4358 44.7071 57.2523 44.773C57.0688 44.8388 56.8738 44.8662 56.6793 44.8535C55.9807 44.8671 55.3034 44.6125 54.7867 44.142L53.812 45.565C54.6424 46.1926 55.6685 46.5052 56.7077 46.4473C58.5719 46.4473 60.0874 45.5152 60.0874 43.1744V37.7884H58.6288ZM56.8074 42.1854C56.5259 42.1854 56.2508 42.102 56.0168 41.9456C55.7828 41.7892 55.6004 41.567 55.4927 41.307C55.385 41.047 55.3568 40.7608 55.4117 40.4848C55.4666 40.2088 55.6021 39.9552 55.8012 39.7562C56.0002 39.5572 56.2537 39.4217 56.5297 39.3668C56.8058 39.3119 57.0919 39.34 57.3519 39.4478C57.6119 39.5555 57.8342 39.7378 57.9905 39.9719C58.1469 40.2059 58.2303 40.481 58.2303 40.7624C58.2303 41.1398 58.0804 41.5018 57.8136 41.7686C57.5467 42.0355 57.1848 42.1854 56.8074 42.1854Z" fill="white"/>
<path d="M65.2961 37.6663C64.9166 37.6495 64.5386 37.7257 64.1952 37.8881C63.8517 38.0505 63.5531 38.2944 63.3253 38.5984V38.2213C63.3308 38.1629 63.3233 38.1041 63.3034 38.0489C63.2836 37.9938 63.2518 37.9437 63.2103 37.9022C63.1689 37.8608 63.1188 37.829 63.0636 37.8091C63.0085 37.7893 62.9496 37.7818 62.8913 37.7873H61.4683V46.2755H63.3253V43.3156C63.5726 43.59 63.8775 43.8063 64.2183 43.949C64.559 44.0917 64.9271 44.1573 65.2961 44.141C65.7031 44.1306 66.1037 44.0375 66.4736 43.8675C66.8435 43.6974 67.1749 43.4539 67.4478 43.1518C67.7206 42.8497 67.9292 42.4952 68.0608 42.1099C68.1924 41.7247 68.2443 41.3167 68.2133 40.9108C68.2463 40.5037 68.1959 40.0942 68.0653 39.7073C67.9346 39.3203 67.7264 38.9641 67.4533 38.6604C67.1802 38.3567 66.8481 38.1119 66.4772 37.941C66.1063 37.7701 65.7044 37.6766 65.2961 37.6663V37.6663ZM64.7981 42.4832C64.4801 42.496 64.1657 42.4133 63.8951 42.2458C63.6246 42.0783 63.4104 41.8337 63.2801 41.5434C63.1498 41.2531 63.1093 40.9304 63.164 40.617C63.2186 40.3035 63.3658 40.0136 63.5867 39.7845C63.8075 39.5555 64.0919 39.3977 64.4032 39.3317C64.7144 39.2656 65.0383 39.2942 65.3332 39.4139C65.628 39.5335 65.8803 39.7386 66.0576 40.0029C66.2348 40.2671 66.329 40.5784 66.3278 40.8965C66.3385 41.1029 66.3068 41.3093 66.2344 41.5029C66.1621 41.6965 66.0508 41.8731 65.9073 42.0219C65.7639 42.1707 65.5914 42.2884 65.4006 42.3677C65.2098 42.4471 65.0047 42.4864 64.7981 42.4832V42.4832Z" fill="white"/>
<path d="M74.3673 37.7881C74.3089 37.7826 74.2501 37.7901 74.1949 37.8099C74.1397 37.8298 74.0897 37.8616 74.0482 37.903C74.0068 37.9445 73.975 37.9946 73.9551 38.0497C73.9352 38.1049 73.9278 38.1637 73.9333 38.2221V38.5992C73.702 38.29 73.3977 38.043 73.0475 37.8803C72.6973 37.7176 72.3123 37.6444 71.9268 37.6671C71.5199 37.6775 71.1193 37.7706 70.7494 37.9406C70.3795 38.1107 70.048 38.3542 69.7752 38.6563C69.5023 38.9584 69.2937 39.3129 69.1622 39.6982C69.0306 40.0834 68.9787 40.4914 69.0097 40.8973C68.9787 41.3033 69.0306 41.7113 69.1622 42.0965C69.2937 42.4818 69.5023 42.8362 69.7752 43.1384C70.048 43.4405 70.3795 43.684 70.7494 43.854C71.1193 44.0241 71.5199 44.1171 71.9268 44.1275C72.312 44.1484 72.6965 44.0743 73.0463 43.9118C73.3962 43.7493 73.7007 43.5033 73.9333 43.1955V43.9995H75.7974V37.7881H74.3673ZM72.4249 42.484C72.0215 42.457 71.6435 42.2777 71.3673 41.9825C71.0912 41.6872 70.9376 41.298 70.9376 40.8938C70.9376 40.4895 71.0912 40.1004 71.3673 39.8051C71.6435 39.5099 72.0215 39.3306 72.4249 39.3036C72.8282 39.3306 73.2063 39.5099 73.4824 39.8051C73.7586 40.1004 73.9122 40.4895 73.9122 40.8938C73.9122 41.298 73.7586 41.6872 73.4824 41.9825C73.2063 42.2777 72.8282 42.457 72.4249 42.484Z" fill="white"/>
<path d="M79.5693 44.1422C81.1489 44.1422 82.1094 43.3169 82.1094 42.0077C82.1094 41.1113 81.5615 40.4994 80.4303 40.2504L79.3274 40.0013C78.9005 39.9017 78.68 39.7665 78.68 39.5175C78.68 39.2685 78.8863 39.112 79.3915 39.112C79.977 39.1324 80.5365 39.3592 80.971 39.7523L81.9031 38.3862C81.1697 37.8733 80.2849 37.6226 79.3915 37.6747C77.9116 37.6747 76.9155 38.3862 76.9155 39.6456C76.9057 40.0926 77.0641 40.527 77.3592 40.863C77.6543 41.1989 78.0647 41.4119 78.5092 41.4599L79.612 41.7231C80.1599 41.8441 80.3235 42.0078 80.3235 42.2212C80.3235 42.4346 80.0958 42.641 79.612 42.641C78.9162 42.6273 78.2459 42.3763 77.7123 41.9295L76.7803 43.2956C77.5963 43.9132 78.6042 44.2231 79.6263 44.1707L79.5693 44.1422Z" fill="white"/>
<path d="M85.46 44.1427C87.0395 44.1427 88 43.3173 88 42.0082C88 41.1117 87.4522 40.4998 86.3209 40.2508L85.2109 40.0017C84.7912 39.9021 84.5706 39.767 84.5706 39.5179C84.5706 39.2689 84.7769 39.1124 85.2821 39.1124C85.8657 39.132 86.4232 39.359 86.8545 39.7527L87.7866 38.3866C87.0567 37.8721 86.1735 37.6212 85.2821 37.6752C83.8022 37.6752 82.8061 38.3866 82.8061 39.646C82.7964 40.093 82.9547 40.5274 83.2498 40.8634C83.5449 41.1993 83.9553 41.4123 84.3998 41.4603L85.5027 41.7236C86.0505 41.8445 86.2142 42.0082 86.2142 42.2216C86.2142 42.4351 85.9936 42.6414 85.5027 42.6414C84.8068 42.6277 84.1366 42.3767 83.603 41.9299L82.6709 43.296C83.487 43.9136 84.4948 44.2235 85.5169 44.1711L85.46 44.1427Z" fill="white"/>
<path d="M20.63 38.4202L19.12 44.0002H17.23L16.35 40.3802L15.44 44.0002H13.56L12.04 38.4202H13.75L14.54 42.4102L15.48 38.4202H17.29L18.24 42.3902L19.02 38.4202H20.63Z" fill="white"/>
<path d="M22.1421 37.8402C21.8421 37.8402 21.5955 37.7536 21.4021 37.5802C21.2155 37.4002 21.1221 37.1802 21.1221 36.9202C21.1221 36.6536 21.2155 36.4336 21.4021 36.2602C21.5955 36.0802 21.8421 35.9902 22.1421 35.9902C22.4355 35.9902 22.6755 36.0802 22.8621 36.2602C23.0555 36.4336 23.1521 36.6536 23.1521 36.9202C23.1521 37.1802 23.0555 37.4002 22.8621 37.5802C22.6755 37.7536 22.4355 37.8402 22.1421 37.8402ZM22.9921 38.4202V44.0002H21.2821V38.4202H22.9921Z" fill="white"/>
<path d="M27.3414 42.5502V44.0002H26.4714C25.8514 44.0002 25.368 43.8502 25.0214 43.5502C24.6747 43.2436 24.5014 42.7469 24.5014 42.0602V39.8402H23.8214V38.4202H24.5014V37.0602H26.2114V38.4202H27.3314V39.8402H26.2114V42.0802C26.2114 42.2469 26.2514 42.3669 26.3314 42.4402C26.4114 42.5136 26.5447 42.5502 26.7314 42.5502H27.3414Z" fill="white"/>
<path d="M31.7239 38.3602C32.3639 38.3602 32.8772 38.5736 33.2639 39.0002C33.6505 39.4202 33.8439 40.0002 33.8439 40.7402V44.0002H32.1439V40.9702C32.1439 40.5969 32.0472 40.3069 31.8539 40.1002C31.6605 39.8936 31.4005 39.7902 31.0739 39.7902C30.7472 39.7902 30.4872 39.8936 30.2939 40.1002C30.1005 40.3069 30.0039 40.5969 30.0039 40.9702V44.0002H28.2939V36.6002H30.0039V39.1702C30.1772 38.9236 30.4139 38.7269 30.7139 38.5802C31.0139 38.4336 31.3505 38.3602 31.7239 38.3602Z" fill="white"/>
</svg>
