<svg width="318" height="48" viewBox="0 0 318 48" fill="none" xmlns="http://www.w3.org/2000/svg">
<rect width="318" height="48" rx="8" fill="#F4333D"/>
<path d="M23.5602 30L20.9322 25.23H20.1942V30H17.1162V17.364H22.2822C23.2782 17.364 24.1242 17.538 24.8202 17.886C25.5282 18.234 26.0562 18.714 26.4042 19.326C26.7522 19.926 26.9262 20.598 26.9262 21.342C26.9262 22.182 26.6862 22.932 26.2062 23.592C25.7382 24.252 25.0422 24.72 24.1182 24.996L27.0342 30H23.5602ZM20.1942 23.052H22.1022C22.6662 23.052 23.0862 22.914 23.3622 22.638C23.6502 22.362 23.7942 21.972 23.7942 21.468C23.7942 20.988 23.6502 20.61 23.3622 20.334C23.0862 20.058 22.6662 19.92 22.1022 19.92H20.1942V23.052Z" fill="white"/>
<path d="M38.3264 24.816C38.3264 25.104 38.3084 25.404 38.2724 25.716H31.3064C31.3544 26.34 31.5524 26.82 31.9004 27.156C32.2604 27.48 32.6984 27.642 33.2144 27.642C33.9824 27.642 34.5164 27.318 34.8164 26.67H38.0924C37.9244 27.33 37.6184 27.924 37.1744 28.452C36.7424 28.98 36.1964 29.394 35.5364 29.694C34.8764 29.994 34.1384 30.144 33.3224 30.144C32.3384 30.144 31.4624 29.934 30.6944 29.514C29.9264 29.094 29.3264 28.494 28.8944 27.714C28.4624 26.934 28.2464 26.022 28.2464 24.978C28.2464 23.934 28.4564 23.022 28.8764 22.242C29.3084 21.462 29.9084 20.862 30.6764 20.442C31.4444 20.022 32.3264 19.812 33.3224 19.812C34.2944 19.812 35.1584 20.016 35.9144 20.424C36.6704 20.832 37.2584 21.414 37.6784 22.17C38.1104 22.926 38.3264 23.808 38.3264 24.816ZM35.1764 24.006C35.1764 23.478 34.9964 23.058 34.6364 22.746C34.2764 22.434 33.8264 22.278 33.2864 22.278C32.7704 22.278 32.3324 22.428 31.9724 22.728C31.6244 23.028 31.4084 23.454 31.3244 24.006H35.1764Z" fill="white"/>
<path d="M45.5482 27.39V30H43.9822C42.8662 30 41.9962 29.73 41.3722 29.19C40.7482 28.638 40.4362 27.744 40.4362 26.508V22.512H39.2122V19.956H40.4362V17.508H43.5142V19.956H45.5302V22.512H43.5142V26.544C43.5142 26.844 43.5862 27.06 43.7302 27.192C43.8742 27.324 44.1142 27.39 44.4502 27.39H45.5482Z" fill="white"/>
<path d="M50.3407 21.63C50.7007 21.078 51.1507 20.646 51.6907 20.334C52.2307 20.01 52.8307 19.848 53.4907 19.848V23.106H52.6447C51.8767 23.106 51.3007 23.274 50.9167 23.61C50.5327 23.934 50.3407 24.51 50.3407 25.338V30H47.2627V19.956H50.3407V21.63Z" fill="white"/>
<path d="M56.5099 18.912C55.9699 18.912 55.5259 18.756 55.1779 18.444C54.8419 18.12 54.6739 17.724 54.6739 17.256C54.6739 16.776 54.8419 16.38 55.1779 16.068C55.5259 15.744 55.9699 15.582 56.5099 15.582C57.0379 15.582 57.4699 15.744 57.8059 16.068C58.1539 16.38 58.3279 16.776 58.3279 17.256C58.3279 17.724 58.1539 18.12 57.8059 18.444C57.4699 18.756 57.0379 18.912 56.5099 18.912ZM58.0399 19.956V30H54.9619V19.956H58.0399Z" fill="white"/>
<path d="M69.7385 24.816C69.7385 25.104 69.7205 25.404 69.6845 25.716H62.7185C62.7665 26.34 62.9645 26.82 63.3125 27.156C63.6725 27.48 64.1105 27.642 64.6265 27.642C65.3945 27.642 65.9285 27.318 66.2285 26.67H69.5045C69.3365 27.33 69.0305 27.924 68.5865 28.452C68.1545 28.98 67.6085 29.394 66.9485 29.694C66.2885 29.994 65.5505 30.144 64.7345 30.144C63.7505 30.144 62.8745 29.934 62.1065 29.514C61.3385 29.094 60.7385 28.494 60.3065 27.714C59.8745 26.934 59.6585 26.022 59.6585 24.978C59.6585 23.934 59.8685 23.022 60.2885 22.242C60.7205 21.462 61.3205 20.862 62.0885 20.442C62.8565 20.022 63.7385 19.812 64.7345 19.812C65.7065 19.812 66.5705 20.016 67.3265 20.424C68.0825 20.832 68.6705 21.414 69.0905 22.17C69.5225 22.926 69.7385 23.808 69.7385 24.816ZM66.5885 24.006C66.5885 23.478 66.4085 23.058 66.0485 22.746C65.6885 22.434 65.2385 22.278 64.6985 22.278C64.1825 22.278 63.7445 22.428 63.3845 22.728C63.0365 23.028 62.8205 23.454 62.7365 24.006H66.5885Z" fill="white"/>
<path d="M75.8803 27.12L78.0583 19.956H81.3343L77.7703 30H73.9723L70.4083 19.956H73.7023L75.8803 27.12Z" fill="white"/>
<path d="M92.0979 24.816C92.0979 25.104 92.0799 25.404 92.0439 25.716H85.0779C85.1259 26.34 85.3239 26.82 85.6719 27.156C86.0319 27.48 86.4699 27.642 86.9859 27.642C87.7539 27.642 88.2879 27.318 88.5879 26.67H91.8639C91.6959 27.33 91.3899 27.924 90.9459 28.452C90.5139 28.98 89.9679 29.394 89.3079 29.694C88.6479 29.994 87.9099 30.144 87.0939 30.144C86.1099 30.144 85.2339 29.934 84.4659 29.514C83.6979 29.094 83.0979 28.494 82.6659 27.714C82.2339 26.934 82.0179 26.022 82.0179 24.978C82.0179 23.934 82.2279 23.022 82.6479 22.242C83.0799 21.462 83.6799 20.862 84.4479 20.442C85.2159 20.022 86.0979 19.812 87.0939 19.812C88.0659 19.812 88.9299 20.016 89.6859 20.424C90.4419 20.832 91.0299 21.414 91.4499 22.17C91.8819 22.926 92.0979 23.808 92.0979 24.816ZM88.9479 24.006C88.9479 23.478 88.7679 23.058 88.4079 22.746C88.0479 22.434 87.5979 22.278 87.0579 22.278C86.5419 22.278 86.1039 22.428 85.7439 22.728C85.3959 23.028 85.1799 23.454 85.0959 24.006H88.9479Z" fill="white"/>
<path d="M111.846 17.364V30H108.768V22.422L105.942 30H103.458L100.614 22.404V30H97.5361V17.364H101.172L104.718 26.112L108.228 17.364H111.846Z" fill="white"/>
<path d="M124.32 19.956L118.02 34.77H114.708L117.012 29.658L112.926 19.956H116.364L118.686 26.238L120.99 19.956H124.32Z" fill="white"/>
<path d="M126.981 18.912C126.441 18.912 125.997 18.756 125.649 18.444C125.313 18.12 125.145 17.724 125.145 17.256C125.145 16.776 125.313 16.38 125.649 16.068C125.997 15.744 126.441 15.582 126.981 15.582C127.509 15.582 127.941 15.744 128.277 16.068C128.625 16.38 128.799 16.776 128.799 17.256C128.799 17.724 128.625 18.12 128.277 18.444C127.941 18.756 127.509 18.912 126.981 18.912ZM128.511 19.956V30H125.433V19.956H128.511Z" fill="white"/>
<path d="M136.861 19.848C138.037 19.848 138.973 20.232 139.669 21C140.377 21.756 140.731 22.8 140.731 24.132V30H137.671V24.546C137.671 23.874 137.497 23.352 137.149 22.98C136.801 22.608 136.333 22.422 135.745 22.422C135.157 22.422 134.689 22.608 134.341 22.98C133.993 23.352 133.819 23.874 133.819 24.546V30H130.741V19.956H133.819V21.288C134.131 20.844 134.551 20.496 135.079 20.244C135.607 19.98 136.201 19.848 136.861 19.848Z" fill="white"/>
<path d="M147.91 22.512H146.254V30H143.176V22.512H142.06V19.956H143.176V19.668C143.176 18.432 143.53 17.496 144.238 16.86C144.946 16.212 145.984 15.888 147.352 15.888C147.58 15.888 147.748 15.894 147.856 15.906V18.516C147.268 18.48 146.854 18.564 146.614 18.768C146.374 18.972 146.254 19.338 146.254 19.866V19.956H147.91V22.512Z" fill="white"/>
<path d="M153.928 30.144C152.944 30.144 152.056 29.934 151.264 29.514C150.484 29.094 149.866 28.494 149.41 27.714C148.966 26.934 148.744 26.022 148.744 24.978C148.744 23.946 148.972 23.04 149.428 22.26C149.884 21.468 150.508 20.862 151.3 20.442C152.092 20.022 152.98 19.812 153.964 19.812C154.948 19.812 155.836 20.022 156.628 20.442C157.42 20.862 158.044 21.468 158.5 22.26C158.956 23.04 159.184 23.946 159.184 24.978C159.184 26.01 158.95 26.922 158.482 27.714C158.026 28.494 157.396 29.094 156.592 29.514C155.8 29.934 154.912 30.144 153.928 30.144ZM153.928 27.48C154.516 27.48 155.014 27.264 155.422 26.832C155.842 26.4 156.052 25.782 156.052 24.978C156.052 24.174 155.848 23.556 155.44 23.124C155.044 22.692 154.552 22.476 153.964 22.476C153.364 22.476 152.866 22.692 152.47 23.124C152.074 23.544 151.876 24.162 151.876 24.978C151.876 25.782 152.068 26.4 152.452 26.832C152.848 27.264 153.34 27.48 153.928 27.48Z" fill="white"/>
<path d="M179.05 19.956L176.332 30H172.93L171.346 23.484L169.708 30H166.324L163.588 19.956H166.666L168.088 27.138L169.78 19.956H173.038L174.748 27.102L176.152 19.956H179.05Z" fill="white"/>
<path d="M181.772 18.912C181.232 18.912 180.788 18.756 180.44 18.444C180.104 18.12 179.936 17.724 179.936 17.256C179.936 16.776 180.104 16.38 180.44 16.068C180.788 15.744 181.232 15.582 181.772 15.582C182.3 15.582 182.732 15.744 183.068 16.068C183.416 16.38 183.59 16.776 183.59 17.256C183.59 17.724 183.416 18.12 183.068 18.444C182.732 18.756 182.3 18.912 181.772 18.912ZM183.302 19.956V30H180.224V19.956H183.302Z" fill="white"/>
<path d="M191.13 27.39V30H189.564C188.448 30 187.578 29.73 186.954 29.19C186.33 28.638 186.018 27.744 186.018 26.508V22.512H184.794V19.956H186.018V17.508H189.096V19.956H191.112V22.512H189.096V26.544C189.096 26.844 189.168 27.06 189.312 27.192C189.456 27.324 189.696 27.39 190.032 27.39H191.13Z" fill="white"/>
<path d="M199.019 19.848C200.171 19.848 201.095 20.232 201.791 21C202.487 21.756 202.835 22.8 202.835 24.132V30H199.775V24.546C199.775 23.874 199.601 23.352 199.253 22.98C198.905 22.608 198.437 22.422 197.849 22.422C197.261 22.422 196.793 22.608 196.445 22.98C196.097 23.352 195.923 23.874 195.923 24.546V30H192.845V16.68H195.923V21.306C196.235 20.862 196.661 20.508 197.201 20.244C197.741 19.98 198.347 19.848 199.019 19.848Z" fill="white"/>
<path d="M214.19 30.2612C217.07 30.2612 218.822 28.7561 218.822 26.3688C218.822 24.7341 217.823 23.6183 215.76 23.1642L213.736 22.71C212.97 22.5284 212.568 22.2819 212.568 21.8278C212.568 21.3737 212.944 21.0882 213.865 21.0882C214.933 21.1255 215.953 21.5391 216.746 22.2559L218.445 19.7649C217.108 18.8294 215.495 18.3723 213.865 18.4674C211.167 18.4674 209.35 19.7649 209.35 22.0613C209.333 22.8765 209.621 23.6687 210.159 24.2813C210.698 24.8939 211.446 25.2823 212.257 25.3698L214.268 25.8499C215.267 26.0704 215.565 26.3688 215.565 26.7581C215.565 27.1473 215.163 27.5236 214.268 27.5236C212.999 27.4987 211.776 27.0409 210.803 26.2261L209 28.6394C210.485 29.7749 212.323 30.3493 214.19 30.2612V30.2612Z" fill="white"/>
<path d="M222.181 22.2938C222.572 22.2938 222.954 22.1778 223.278 21.9606C223.603 21.7433 223.856 21.4345 224.004 21.0734C224.153 20.7123 224.192 20.3151 224.114 19.9322C224.037 19.5493 223.848 19.1979 223.571 18.9226C223.294 18.6474 222.941 18.4606 222.558 18.3859C222.175 18.3113 221.778 18.3522 221.418 18.5035C221.057 18.6547 220.75 18.9095 220.535 19.2355C220.32 19.5616 220.207 19.9441 220.209 20.3347C220.206 20.5941 220.254 20.8515 220.352 21.0916C220.45 21.3318 220.596 21.5497 220.78 21.7325C220.964 21.9153 221.183 22.0592 221.423 22.1557C221.664 22.2521 221.922 22.2991 222.181 22.2938Z" fill="white"/>
<path d="M220.055 30.0002H224.31L223.415 22.9551C222.611 23.1627 221.767 23.1627 220.963 22.9551L220.055 30.0002Z" fill="white"/>
<path d="M226.307 29.9992H229.758V23.9012C229.758 22.4092 230.484 21.488 231.886 21.488C233.287 21.488 233.923 22.2535 233.923 23.9012V29.9992H237.322V23.0449C237.322 20.0089 235.804 18.452 233.209 18.452C232.533 18.4226 231.861 18.567 231.257 18.8713C230.653 19.1757 230.137 19.6299 229.758 20.1906V19.464C229.768 19.3576 229.754 19.2502 229.718 19.1497C229.682 19.0491 229.624 18.9577 229.548 18.8822C229.473 18.8066 229.381 18.7486 229.281 18.7124C229.18 18.6761 229.073 18.6625 228.966 18.6725H226.372L226.307 29.9992Z" fill="white"/>
<path d="M248.441 18.6739C248.334 18.6639 248.227 18.6775 248.127 18.7138C248.026 18.75 247.935 18.808 247.859 18.8836C247.783 18.9591 247.725 19.0505 247.689 19.1511C247.653 19.2516 247.639 19.359 247.649 19.4654V20.153C247.272 19.597 246.757 19.1482 246.154 18.8503C245.552 18.5525 244.882 18.4157 244.211 18.4534C242.814 18.5878 241.518 19.2377 240.574 20.2764C239.631 21.3151 239.108 22.668 239.108 24.0713C239.108 25.4746 239.631 26.8275 240.574 27.8662C241.518 28.9049 242.814 29.5548 244.211 29.6892C244.86 29.7301 245.51 29.6175 246.107 29.3606C246.704 29.1036 247.233 28.7095 247.649 28.2101V28.9627C247.65 29.3181 247.578 29.6699 247.437 29.9963C247.296 30.3226 247.09 30.6165 246.831 30.8598C246.572 31.1031 246.265 31.2906 245.931 31.4106C245.596 31.5306 245.241 31.5807 244.886 31.5576C243.612 31.5823 242.377 31.118 241.435 30.2601L239.657 32.855C241.171 33.9994 243.043 34.5695 244.938 34.4638C248.337 34.4638 251.101 32.7642 251.101 28.4956V18.6739H248.441ZM245.119 26.6921C244.606 26.6921 244.105 26.54 243.678 26.2548C243.251 25.9697 242.918 25.5644 242.722 25.0903C242.526 24.6161 242.474 24.0944 242.574 23.591C242.675 23.0877 242.922 22.6253 243.285 22.2624C243.647 21.8995 244.11 21.6524 244.613 21.5522C245.117 21.4521 245.638 21.5035 246.112 21.6999C246.587 21.8963 246.992 22.2289 247.277 22.6556C247.562 23.0823 247.714 23.584 247.714 24.0973C247.714 24.7855 247.441 25.4455 246.954 25.9321C246.468 26.4188 245.808 26.6921 245.119 26.6921Z" fill="white"/>
<path d="M260.6 18.4524C259.908 18.4218 259.219 18.5606 258.592 18.8568C257.966 19.153 257.421 19.5976 257.006 20.1521V19.4644C257.016 19.358 257.002 19.2507 256.966 19.1501C256.93 19.0495 256.872 18.9582 256.796 18.8826C256.721 18.807 256.629 18.749 256.529 18.7128C256.428 18.6766 256.321 18.663 256.215 18.673H253.62V34.1515H257.006V28.7541C257.457 29.2545 258.013 29.6489 258.634 29.9091C259.256 30.1693 259.927 30.2888 260.6 30.2591C261.342 30.2402 262.073 30.0705 262.747 29.7604C263.422 29.4503 264.026 29.0063 264.524 28.4554C265.021 27.9044 265.401 27.258 265.641 26.5555C265.881 25.853 265.976 25.109 265.919 24.3687C265.98 23.6265 265.888 22.8797 265.65 22.1741C265.411 21.4685 265.032 20.8189 264.534 20.2651C264.036 19.7113 263.43 19.2649 262.754 18.9533C262.077 18.6416 261.344 18.4711 260.6 18.4524V18.4524ZM259.692 27.2361C259.112 27.2594 258.538 27.1086 258.045 26.8032C257.552 26.4978 257.161 26.0517 256.924 25.5223C256.686 24.993 256.612 24.4046 256.712 23.833C256.811 23.2614 257.08 22.7327 257.483 22.315C257.885 21.8973 258.404 21.6097 258.972 21.4892C259.539 21.3688 260.13 21.4209 260.667 21.6391C261.205 21.8572 261.665 22.2313 261.988 22.7131C262.312 23.195 262.483 23.7626 262.481 24.3428C262.501 24.7191 262.443 25.0955 262.311 25.4485C262.179 25.8015 261.976 26.1237 261.714 26.395C261.453 26.6663 261.138 26.8809 260.79 27.0256C260.442 27.1703 260.068 27.2419 259.692 27.2361V27.2361Z" fill="white"/>
<path d="M277.142 18.6733C277.035 18.6633 276.928 18.6768 276.827 18.7131C276.727 18.7493 276.635 18.8073 276.56 18.8829C276.484 18.9585 276.426 19.0498 276.39 19.1504C276.354 19.251 276.34 19.3583 276.35 19.4647V20.1524C275.929 19.5885 275.374 19.1381 274.735 18.8414C274.096 18.5448 273.394 18.4112 272.691 18.4527C271.949 18.4717 271.219 18.6413 270.544 18.9514C269.87 19.2615 269.265 19.7055 268.768 20.2565C268.27 20.8074 267.89 21.4538 267.65 22.1564C267.41 22.8589 267.315 23.6029 267.372 24.3431C267.315 25.0833 267.41 25.8273 267.65 26.5298C267.89 27.2324 268.27 27.8787 268.768 28.4297C269.265 28.9807 269.87 29.4247 270.544 29.7348C271.219 30.0449 271.949 30.2145 272.691 30.2335C273.394 30.2715 274.095 30.1364 274.733 29.84C275.371 29.5437 275.926 29.0951 276.35 28.5338V29.9999H279.749V18.6733H277.142ZM273.6 27.2364C272.864 27.1872 272.175 26.8602 271.671 26.3218C271.168 25.7834 270.887 25.0738 270.887 24.3366C270.887 23.5994 271.168 22.8898 271.671 22.3514C272.175 21.813 272.864 21.4861 273.6 21.4368C274.335 21.4861 275.024 21.813 275.528 22.3514C276.032 22.8898 276.312 23.5994 276.312 24.3366C276.312 25.0738 276.032 25.7834 275.528 26.3218C275.024 26.8602 274.335 27.1872 273.6 27.2364Z" fill="white"/>
<path d="M286.627 30.2602C289.507 30.2602 291.259 28.7552 291.259 26.3679C291.259 24.7331 290.26 23.6173 288.197 23.1632L286.186 22.7091C285.407 22.5274 285.005 22.2809 285.005 21.8268C285.005 21.3727 285.381 21.0873 286.303 21.0873C287.37 21.1245 288.391 21.5381 289.183 22.255L290.883 19.7639C289.545 18.8284 287.932 18.3713 286.303 18.4664C283.604 18.4664 281.788 19.7639 281.788 22.0604C281.77 22.8755 282.059 23.6677 282.597 24.2803C283.135 24.8929 283.883 25.2813 284.694 25.3688L286.705 25.8489C287.704 26.0694 288.002 26.3679 288.002 26.7571C288.002 27.1463 287.587 27.5226 286.705 27.5226C285.436 27.4977 284.214 27.0399 283.241 26.2251L281.541 28.7162C283.029 29.8425 284.867 30.4076 286.731 30.3121L286.627 30.2602Z" fill="white"/>
<path d="M297.368 30.261C300.249 30.261 302 28.7559 302 26.3686C302 24.7338 301.001 23.618 298.938 23.1639L296.914 22.7098C296.149 22.5282 295.746 22.2817 295.746 21.8276C295.746 21.3735 296.123 21.088 297.044 21.088C298.108 21.1238 299.125 21.5378 299.911 22.2557L301.611 19.7646C300.28 18.8264 298.669 18.3689 297.044 18.4672C294.345 18.4672 292.529 19.7646 292.529 22.0611C292.511 22.8763 292.8 23.6685 293.338 24.2811C293.876 24.8936 294.624 25.2821 295.435 25.3696L297.446 25.8496C298.445 26.0702 298.743 26.3686 298.743 26.7579C298.743 27.1471 298.341 27.5233 297.446 27.5233C296.177 27.4985 294.955 27.0407 293.982 26.2259L292.282 28.717C293.77 29.8433 295.608 30.4084 297.472 30.3129L297.368 30.261Z" fill="white"/>
</svg>
