<svg width="32" height="32" viewBox="0 0 32 32" fill="none" xmlns="http://www.w3.org/2000/svg">
<circle cx="16" cy="16" r="15.5" fill="white" stroke="#CC0001"/>
<path d="M16 20H10V15H8V23C8 23.5625 8.4375 24 9 24H17C17.5312 24 18 23.5625 18 23V15H16V20ZM25.8125 12.4688L23.1562 8.46875C22.9688 8.1875 22.6562 8 22.3125 8H9.65625C9.3125 8 9 8.1875 8.8125 8.46875L6.15625 12.4688C5.71875 13.125 6.1875 14 7 14H25C25.7812 14 26.25 13.125 25.8125 12.4688ZM22 23.5C22 23.7812 22.2188 24 22.5 24H23.5C23.75 24 24 23.7812 24 23.5V15H22V23.5Z" fill="#CC0001"/>
</svg>