<svg width="135" height="143" viewBox="0 0 135 143" fill="none" xmlns="http://www.w3.org/2000/svg">
<path d="M67.5 0C41.3 0 20 21.3 20 47.5C20 73.7 41.3 95 67.5 95C93.7 95 115 73.7 115 47.5C115 21.3 93.7 0 67.5 0ZM67.5 89.1C61.1 89.1 55.4 82 51.8 71.4C56.7 72.3 61.9 72.8 67.5 72.8C73.1 72.8 78.3 72.3 83.2 71.4C79.6 82 73.9 89.1 67.5 89.1ZM67.5 66.8C61.3 66.8 55.4 66.1 50.1 64.9C48.9 59.6 48.2 53.7 48.2 47.5C48.2 41.3 48.9 35.4 50.1 30.1C55.4 28.9 61.3 28.2 67.5 28.2C73.7 28.2 79.6 28.9 84.9 30.1C86.1 35.4 86.8 41.3 86.8 47.5C86.8 53.7 86.1 59.6 84.9 64.9C79.6 66.1 73.7 66.8 67.5 66.8ZM43.6 63.2C33 59.6 25.9 53.9 25.9 47.5C25.9 41.1 33 35.4 43.6 31.8C42.7 36.7 42.2 41.9 42.2 47.5C42.2 53.1 42.8 58.3 43.6 63.2ZM67.5 5.9C73.9 5.9 79.6 13 83.2 23.6C78.3 22.7 73.1 22.2 67.5 22.2C61.9 22.2 56.7 22.7 51.8 23.6C55.4 13 61.1 5.9 67.5 5.9ZM91.4 31.8C102 35.3 109.1 41.1 109.1 47.5C109.1 53.9 102 59.6 91.4 63.2C92.3 58.3 92.8 53.1 92.8 47.5C92.8 41.9 92.2 36.7 91.4 31.8ZM106.3 32.8C102 29.6 96.4 27 89.8 25.1C88 18.5 85.3 12.9 82.1 8.6C93.3 12.9 102.1 21.7 106.3 32.8ZM52.8 8.7C49.6 13 47 18.6 45.1 25.2C38.5 27 32.9 29.7 28.6 32.9C32.9 21.7 41.7 12.9 52.8 8.7ZM28.7 62.2C33 65.4 38.6 68 45.2 69.9C47 76.5 49.7 82.1 52.9 86.4C41.7 82.1 32.9 73.3 28.7 62.2ZM82.2 86.3C85.4 82 88 76.4 89.9 69.8C96.5 68 102.1 65.3 106.4 62.1C102.1 73.3 93.3 82.1 82.2 86.3Z" fill="white"/>
<path d="M7.12003 123.512V125.733C7.61336 125.671 8.13753 125.64 8.69253 125.64C9.35031 125.64 9.95669 125.732 10.5117 125.917C11.0872 126.082 11.5806 126.349 11.9917 126.719C12.4028 127.069 12.7317 127.511 12.9784 128.045C13.225 128.559 13.3484 129.155 13.3484 129.833C13.3484 130.491 13.2147 131.087 12.9475 131.622C12.7009 132.136 12.3617 132.577 11.93 132.947C11.4984 133.297 10.9948 133.574 10.4192 133.78C9.84364 133.965 9.23725 134.058 8.60003 134.058C7.09947 134.058 5.95864 133.616 5.17753 132.732C4.39642 131.827 3.98531 130.666 3.94419 129.247H1.32336C1.30281 130.378 1.45697 131.385 1.78586 132.269C2.13531 133.153 2.62864 133.903 3.26586 134.52C3.90308 135.116 4.67392 135.568 5.57836 135.877C6.48281 136.185 7.49003 136.339 8.60003 136.339C9.62781 136.339 10.5939 136.206 11.4984 135.938C12.4234 135.651 13.225 135.229 13.9034 134.674C14.5817 134.119 15.1161 133.431 15.5067 132.608C15.9178 131.766 16.1234 130.799 16.1234 129.71C16.1234 128.394 15.7945 127.254 15.1367 126.287C14.4995 125.321 13.5128 124.694 12.1767 124.407V124.345C13.04 123.954 13.7595 123.379 14.335 122.618C14.9106 121.858 15.1984 120.984 15.1984 119.997C15.1984 118.99 15.0236 118.117 14.6742 117.377C14.3453 116.637 13.8828 116.03 13.2867 115.557C12.6906 115.085 11.9814 114.735 11.1592 114.509C10.3575 114.262 9.48392 114.139 8.53836 114.139C7.44892 114.139 6.48281 114.314 5.64003 114.663C4.81781 115.013 4.12919 115.496 3.57419 116.112C3.01919 116.729 2.58753 117.469 2.27919 118.333C1.99142 119.196 1.82697 120.152 1.78586 121.2H4.40669C4.40669 120.563 4.48892 119.956 4.65336 119.381C4.81781 118.805 5.06447 118.302 5.39336 117.87C5.74281 117.438 6.17447 117.099 6.68836 116.852C7.22281 116.585 7.83947 116.452 8.53836 116.452C9.64836 116.452 10.5734 116.75 11.3134 117.346C12.0534 117.921 12.4234 118.795 12.4234 119.967C12.4234 120.542 12.3103 121.056 12.0842 121.508C11.8581 121.961 11.5498 122.341 11.1592 122.649C10.7892 122.937 10.3473 123.163 9.83336 123.328C9.34003 123.471 8.81586 123.543 8.26086 123.543H7.70586C7.60308 123.543 7.50031 123.543 7.39753 123.543C7.31531 123.543 7.22281 123.533 7.12003 123.512ZM30.2963 119.72H32.9172C32.7527 117.911 32.1361 116.534 31.0672 115.588C29.9983 114.622 28.5594 114.139 26.7505 114.139C25.1883 114.139 23.8933 114.468 22.8655 115.126C21.8377 115.784 21.0155 116.657 20.3988 117.747C19.7822 118.836 19.3402 120.09 19.073 121.508C18.8263 122.906 18.703 124.355 18.703 125.856C18.703 127.007 18.7852 128.199 18.9497 129.432C19.1347 130.666 19.4944 131.796 20.0288 132.824C20.5633 133.852 21.3238 134.695 22.3105 135.352C23.2972 136.01 24.6024 136.339 26.2263 136.339C27.6036 136.339 28.7547 136.113 29.6797 135.661C30.6252 135.188 31.3755 134.602 31.9305 133.903C32.5061 133.184 32.9172 132.392 33.1638 131.529C33.4105 130.666 33.5338 129.833 33.5338 129.032C33.5338 128.024 33.3797 127.089 33.0713 126.226C32.763 125.362 32.3211 124.612 31.7455 123.975C31.1905 123.338 30.4916 122.844 29.6488 122.495C28.8266 122.125 27.8913 121.94 26.843 121.94C25.6508 121.94 24.5922 122.166 23.6672 122.618C22.7627 123.071 22.0022 123.8 21.3855 124.808L21.3238 124.746C21.3444 123.903 21.4266 122.999 21.5705 122.033C21.7144 121.066 21.9713 120.172 22.3413 119.35C22.7319 118.507 23.2663 117.819 23.9447 117.284C24.623 116.729 25.5172 116.452 26.6272 116.452C27.6755 116.452 28.5183 116.75 29.1555 117.346C29.7927 117.942 30.173 118.733 30.2963 119.72ZM26.3497 124.253C27.0897 124.253 27.7372 124.386 28.2922 124.653C28.8472 124.921 29.3097 125.28 29.6797 125.733C30.0497 126.164 30.3169 126.688 30.4813 127.305C30.6663 127.901 30.7588 128.538 30.7588 129.217C30.7588 129.854 30.6561 130.471 30.4505 131.067C30.2655 131.642 29.988 132.156 29.618 132.608C29.248 133.061 28.7855 133.42 28.2305 133.688C27.6961 133.934 27.0691 134.058 26.3497 134.058C25.6302 134.058 24.9827 133.934 24.4072 133.688C23.8522 133.42 23.3794 133.071 22.9888 132.639C22.6188 132.207 22.3311 131.694 22.1255 131.097C21.9199 130.501 21.8172 129.864 21.8172 129.186C21.8172 128.507 21.9097 127.87 22.0947 127.274C22.3002 126.657 22.5983 126.133 22.9888 125.702C23.3794 125.249 23.8522 124.9 24.4072 124.653C24.9622 124.386 25.6097 124.253 26.3497 124.253ZM38.7343 125.239C38.7343 124.705 38.7343 124.119 38.7343 123.482C38.7549 122.824 38.8063 122.176 38.8885 121.539C38.9913 120.881 39.1249 120.244 39.2893 119.628C39.4743 119.011 39.7313 118.476 40.0601 118.024C40.4096 117.551 40.8413 117.171 41.3551 116.883C41.869 116.596 42.496 116.452 43.236 116.452C43.976 116.452 44.6029 116.596 45.1168 116.883C45.6307 117.171 46.0521 117.551 46.381 118.024C46.7304 118.476 46.9874 119.011 47.1518 119.628C47.3368 120.244 47.4704 120.881 47.5526 121.539C47.6554 122.176 47.7068 122.824 47.7068 123.482C47.7274 124.119 47.7376 124.705 47.7376 125.239C47.7376 126.061 47.7068 126.986 47.6451 128.014C47.604 129.021 47.4396 129.977 47.1518 130.882C46.8846 131.766 46.4426 132.516 45.826 133.133C45.2093 133.749 44.346 134.058 43.236 134.058C42.126 134.058 41.2626 133.749 40.646 133.133C40.0293 132.516 39.5771 131.766 39.2893 130.882C39.0221 129.977 38.8576 129.021 38.796 128.014C38.7549 126.986 38.7343 126.061 38.7343 125.239ZM35.9593 125.27C35.9593 126.072 35.9799 126.904 36.021 127.767C36.0621 128.631 36.1649 129.474 36.3293 130.296C36.4938 131.118 36.7301 131.899 37.0385 132.639C37.3468 133.359 37.7682 133.996 38.3026 134.551C38.8371 135.106 39.5051 135.548 40.3068 135.877C41.129 136.185 42.1054 136.339 43.236 136.339C44.3871 136.339 45.3635 136.185 46.1651 135.877C46.9668 135.548 47.6349 135.106 48.1693 134.551C48.7038 133.996 49.1251 133.359 49.4335 132.639C49.7418 131.899 49.9782 131.118 50.1426 130.296C50.3071 129.474 50.4099 128.631 50.451 127.767C50.4921 126.904 50.5126 126.072 50.5126 125.27C50.5126 124.468 50.4921 123.636 50.451 122.772C50.4099 121.909 50.3071 121.066 50.1426 120.244C49.9782 119.422 49.7418 118.641 49.4335 117.901C49.1251 117.161 48.7038 116.513 48.1693 115.958C47.6349 115.403 46.9565 114.961 46.1343 114.633C45.3326 114.304 44.3665 114.139 43.236 114.139C42.1054 114.139 41.129 114.304 40.3068 114.633C39.5051 114.961 38.8371 115.403 38.3026 115.958C37.7682 116.513 37.3468 117.161 37.0385 117.901C36.7301 118.641 36.4938 119.422 36.3293 120.244C36.1649 121.066 36.0621 121.909 36.021 122.772C35.9799 123.636 35.9593 124.468 35.9593 125.27ZM71.448 136L79.2797 113.985H76.2272L69.8755 133.071H69.8138L63.5238 113.985H60.3788L68.118 136H71.448ZM81.7564 113.985V136H84.6856V113.985H81.7564ZM89.6124 113.985V136H104.906V133.533H92.5416V125.917H103.981V123.451H92.5416V116.452H104.813V113.985H89.6124ZM128.349 136L134.238 113.985H131.309L126.838 132.3H126.777L121.905 113.985H118.729L113.796 132.3H113.734L109.418 113.985H106.427L112.069 136H115.122L120.209 117.5H120.271L125.297 136H128.349Z" fill="white"/>
</svg>
