<svg width="18" height="13" viewBox="0 0 18 13" fill="none" xmlns="http://www.w3.org/2000/svg">
<path d="M1.8125 6.75C1.8125 5.13672 2.33203 3.55078 3.31641 2.26562C3.45312 2.07422 3.42578 1.82812 3.26172 1.66406L2.93359 1.39062C2.74219 1.22656 2.44141 1.25391 2.27734 1.44531C1.12891 2.97656 0.5 4.83594 0.5 6.75C0.5 8.69141 1.12891 10.5508 2.27734 12.082C2.44141 12.2734 2.74219 12.3008 2.93359 12.1367L3.26172 11.8633C3.42578 11.6992 3.45312 11.4531 3.31641 11.2617C2.33203 9.97656 1.8125 8.39062 1.8125 6.75ZM9.25 0.625C5.85938 0.625 3.125 3.38672 3.125 6.75C3.125 10.1406 5.85938 12.875 9.25 12.875C12.6133 12.875 15.375 10.1406 15.375 6.75C15.375 3.38672 12.6133 0.625 9.25 0.625ZM9.25 10.25C8.75781 10.25 8.375 9.86719 8.375 9.375C8.375 8.91016 8.75781 8.5 9.25 8.5C9.71484 8.5 10.125 8.91016 10.125 9.375C10.125 9.86719 9.71484 10.25 9.25 10.25ZM9.93359 7.24219C9.90625 7.46094 9.71484 7.625 9.49609 7.625H8.97656C8.75781 7.625 8.56641 7.46094 8.53906 7.24219L8.18359 3.74219C8.15625 3.49609 8.375 3.25 8.62109 3.25H9.85156C10.0977 3.25 10.3164 3.49609 10.2891 3.74219L9.93359 7.24219ZM16.1406 1.39062C16.0039 1.19922 15.7031 1.17188 15.5117 1.33594L15.1836 1.63672C14.9922 1.77344 14.9922 2.04688 15.1289 2.23828C16.1406 3.52344 16.6875 5.10938 16.6875 6.75C16.6875 8.41797 16.1406 10.0039 15.1289 11.2891C14.9922 11.4805 14.9922 11.7539 15.1836 11.8906L15.5117 12.1914C15.7031 12.3555 16.0039 12.3281 16.1406 12.1367C17.3438 10.6055 18 8.71875 18 6.75C18 4.80859 17.3438 2.92188 16.1406 1.39062Z" fill="#CC0001"/>
</svg>
